<svg width="86" height="35" viewBox="0 0 86 35" fill="none" xmlns="http://www.w3.org/2000/svg">
<path fill-rule="evenodd" clip-rule="evenodd" d="M3.92452 1.70819L2.31528 1.62504L1.65196 1.49238L1.51929 1.2434C1.51929 1.01124 1.68512 0.911743 2.01724 0.911743H18.658C26.4557 0.911743 31.9304 3.28426 35.1162 8.04565C36.9412 10.7998 37.8535 14.0683 37.8535 17.851C37.8535 19.8255 37.555 21.7333 36.9407 23.5747C36.2443 25.516 35.282 27.2252 34.0376 28.7518C32.6768 30.3606 31.0181 31.6054 29.1099 32.5177C27.069 33.4468 24.7797 33.928 22.2082 33.928H0.98818C0.639708 33.928 0.473877 33.8117 0.473877 33.6131C0.473877 33.3973 0.72285 33.2815 1.18718 33.2815L5.25208 33.0329C5.88269 32.9493 6.33066 32.7667 6.54646 32.5182L6.96127 31.9371C7.11074 31.5396 7.19389 30.9426 7.21024 30.1293V3.81537C7.21024 2.78677 6.62961 2.15616 5.5015 1.90718L3.92452 1.70819ZM12.8839 2.15616L12.7676 2.81993V32.0366C12.7676 32.3683 12.834 32.6 12.9666 32.6836L13.6304 32.7831H15.8203L20.897 32.6004C22.2572 32.4514 23.4185 32.2356 24.3312 31.9366C25.2388 31.6056 26.0894 31.1357 26.8528 30.5437C27.5166 29.9962 28.1967 29.2161 28.9436 28.2207C30.1876 26.5951 31.0835 24.521 31.631 21.9827C31.9626 20.3244 32.1289 18.7147 32.1289 17.1718C32.1289 15.8115 31.9299 14.3513 31.5151 12.7752C30.9345 10.5022 30.0549 8.51134 28.8105 6.81895C26.4048 3.53414 22.4562 1.90809 16.9979 1.90809H13.6299C13.2488 1.87402 12.9998 1.95716 12.8839 2.15616ZM41.1215 33.679C41.0883 33.4795 41.2542 33.3969 41.6194 33.3969L42.7807 33.3632C43.4113 33.2805 43.793 33.0652 43.942 32.7331L44.1578 31.5386V21.8991C44.1578 21.5343 44.0247 21.2521 43.7762 21.0863L42.9134 21.0027L41.7521 21.3185L41.1215 21.2849C41.0384 21.0859 41.2873 20.9032 41.868 20.7374C43.245 20.3726 44.4567 19.9078 45.4849 19.3271C46.115 18.9623 46.563 18.7629 46.762 18.6802L47.26 18.6306C47.4258 18.6634 47.5094 18.9955 47.5094 19.5925V31.7367C47.5094 32.3169 47.6416 32.7322 47.891 32.9807C48.1891 33.2796 48.8865 33.4287 49.9646 33.4287C50.3462 33.4287 50.5448 33.5123 50.5788 33.694C50.5788 33.8439 50.4625 33.8934 50.2631 33.8934H41.42C41.221 33.8948 41.1215 33.8112 41.1215 33.679ZM80.2757 21.7333C79.4629 22.5797 78.9155 23.5747 78.6165 24.7691V31.8208C78.6165 32.4509 78.8323 32.8989 79.2803 33.181L80.293 33.3628L81.3543 33.4791C81.6037 33.5127 81.7032 33.5627 81.7032 33.6949L81.6537 33.8112L81.3716 33.8948H72.4953C72.23 33.8948 72.081 33.8112 72.081 33.679L72.3295 33.4795L73.8229 33.3632C74.4031 33.2637 74.7688 33.0652 74.9678 32.7662L75.2172 32.0198V22.0654L75.0505 21.3353L74.7692 21.1694C74.6856 21.0868 74.5534 21.0372 74.354 21.0036C74.1055 20.9877 73.8065 21.0372 73.4917 21.1694L72.6461 21.4021L72.1641 21.2858C72.0814 21.1694 72.1146 21.0868 72.2304 21.0372L72.9437 20.7383C74.5693 20.2572 75.8801 19.7597 76.7933 19.2458L77.9209 18.6316L78.4189 18.6643L78.6179 19.0795V22.7292C79.8627 20.7051 80.8577 19.4612 81.5383 19.0459C81.9527 18.7974 82.3511 18.5979 82.6501 18.5152L83.2302 18.4657C83.5951 18.4321 84.0103 18.5484 84.4742 18.8474C85.1053 19.2122 85.4369 19.7597 85.4696 20.4561C85.5033 21.0372 85.3365 21.4857 84.9717 21.8332C84.64 22.1154 84.3079 22.199 84.0099 22.1154C83.7277 22.0658 83.5119 21.9495 83.3629 21.7837L82.8981 21.2035C82.5333 20.672 82.1848 20.5061 81.7705 20.6561C81.2875 20.7874 80.7905 21.1531 80.2757 21.7333ZM45.6012 8.09562C44.9869 8.09562 44.4895 8.31143 44.0751 8.72624C43.6271 9.14104 43.4113 9.6717 43.444 10.286C43.4113 10.8666 43.6267 11.3645 44.0751 11.7793C44.4895 12.1941 44.9874 12.4095 45.6012 12.4095C46.1814 12.4095 46.6961 12.1937 47.1105 11.7793C47.5248 11.3645 47.7575 10.867 47.7575 10.286C47.7575 9.6717 47.5248 9.14104 47.1105 8.72624C46.6961 8.31143 46.1814 8.09562 45.6012 8.09562ZM54.3943 21.3348C54.9913 20.5388 55.7387 19.8751 56.6342 19.3444C57.4311 18.8796 58.2271 18.5811 59.0567 18.4312L62.1261 18.2495C63.237 18.299 64.2665 18.5148 65.1956 18.9291C67.4354 19.9246 68.8452 21.7501 69.3759 24.4043C69.9233 27.0921 69.4595 29.3656 67.9988 31.207C66.7548 32.7662 65.112 33.7617 63.0384 34.1928C60.8654 34.674 58.8413 34.5245 57.0158 33.7785C54.6428 32.8158 53.2003 30.908 52.7351 28.1207C52.3203 25.4833 52.8678 23.243 54.3943 21.3348ZM64.1161 20.5888C63.1043 19.4612 61.8267 18.9632 60.2834 19.0954C58.7909 19.2454 57.646 20.0741 56.899 21.6501C56.2194 23.0772 55.9699 24.82 56.2194 26.8768C56.4011 28.9176 57.049 30.5432 58.0935 31.7876C59.2052 33.0984 60.4664 33.6458 61.8762 33.3973C63.3528 33.1152 64.4319 32.3183 65.1451 30.9916C65.8416 29.6314 66.0902 27.8726 65.9243 25.6328C65.7258 23.3929 65.1456 21.7333 64.1161 20.5888ZM41.0052 21.3189V21.4848L40.6399 21.2521V21.3348L40.6731 21.4848H40.6231V21.169H40.6399L40.9716 21.4184V21.169H41.0379L41.0052 21.3189Z" fill="#333333"/>
<path fill-rule="evenodd" clip-rule="evenodd" d="M41.619 21.2024H41.42V21.3188H41.5858V21.3347H41.42V21.451H41.619V21.485H41.3705V21.1688H41.619V21.2024ZM42.5318 21.1688H42.5486L42.3827 21.4846H42.3328L42.2001 21.2352L42.0506 21.4846H42.0338C41.9507 21.3347 41.8848 21.2352 41.868 21.1688H41.9511L42.0506 21.4183L42.2001 21.1688H42.2496L42.3659 21.4183L42.4986 21.1688H42.5318ZM42.9961 21.3347L43.0292 21.485H42.9466V21.3687L42.7807 21.1688H42.8634L42.9961 21.3347L43.1287 21.1688H43.1955L42.9961 21.3347ZM43.4609 21.2356C43.4936 21.2029 43.5772 21.1693 43.6599 21.1693C43.7435 21.1693 43.793 21.2029 43.8593 21.2356C43.8752 21.2524 43.9088 21.2851 43.9088 21.3351L43.8593 21.4514C43.793 21.485 43.743 21.485 43.6599 21.485C43.5772 21.485 43.494 21.485 43.4609 21.4514L43.3773 21.3351C43.3777 21.2851 43.4113 21.2524 43.4609 21.2356ZM43.793 21.2356L43.6599 21.2029L43.5276 21.2356C43.494 21.2524 43.4613 21.2851 43.4613 21.3351C43.4613 21.3687 43.494 21.4014 43.5276 21.4187L43.6599 21.485C43.7094 21.485 43.7762 21.4514 43.793 21.4187C43.8257 21.4019 43.8593 21.3692 43.8593 21.3351C43.8593 21.2851 43.8257 21.2524 43.793 21.2356ZM44.2905 21.2024L44.2737 21.3188H44.3232C44.4059 21.3188 44.4563 21.2851 44.4563 21.2524C44.4563 21.2356 44.4395 21.2029 44.3559 21.2029L44.2905 21.2024ZM44.3732 21.1688C44.4568 21.1688 44.5222 21.2024 44.5222 21.2524L44.4563 21.3188L44.3727 21.3347L44.5722 21.4846H44.4886L44.2896 21.3347H44.2737L44.2905 21.4846H44.2069V21.1688H44.3732ZM45.2028 21.1688L44.9874 21.3188L45.2028 21.485H45.1205L44.9374 21.3347V21.3188L44.9038 21.3347L44.9374 21.485H44.8543V21.1688H44.9374L44.9038 21.3188H44.9374L45.1532 21.1688H45.2028Z" fill="#333333"/>
</svg>
