<svg width="40" height="40" viewBox="0 0 40 40" fill="none" xmlns="http://www.w3.org/2000/svg">
<path fill-rule="evenodd" clip-rule="evenodd" d="M10.3795 5.36605C7.54643 5.9296 4.94405 7.32059 2.90146 9.36311L6.35812 12.8198C7.54778 11.6305 9.02573 10.7704 10.6474 10.3235C12.2691 9.87662 13.979 9.85828 15.61 10.2703C13.3864 12.9057 12.1667 16.2427 12.1667 19.6909C12.1667 23.139 13.3864 26.4761 15.61 29.1115C13.979 29.5243 12.2687 29.5066 10.6467 29.0599C9.02459 28.6133 7.5463 27.7531 6.3565 26.5636L2.89984 30.0187C5.10009 32.2189 7.9455 33.6589 11.0214 34.1289C14.0973 34.5988 17.2429 34.0742 19.9997 32.6314C22.7566 34.0731 25.9017 34.5971 28.9771 34.1271C32.0524 33.6572 34.8975 32.2178 37.098 30.0187L33.6414 26.562C32.4518 27.7514 30.9739 28.6116 29.3521 29.0585C27.7304 29.5054 26.0204 29.5237 24.3895 29.1115C26.6126 26.4756 27.8329 23.139 27.8348 19.6909C27.8345 16.2424 26.6141 12.9053 24.3895 10.2703C26.0205 9.85761 27.7307 9.87546 29.3528 10.3221C30.9748 10.7687 32.4531 11.6288 33.643 12.8181L37.0996 9.36311C34.8994 7.16291 32.054 5.72289 28.9781 5.25291C25.9022 4.78293 22.7566 5.30756 19.9997 6.75033C17.0451 5.20418 13.6503 4.71569 10.3795 5.36605ZM19.9997 12.7208C18.3704 14.3046 17.3474 16.4092 17.1084 18.6688C16.8695 20.9285 17.4297 23.2005 18.6917 25.0901C19.0731 25.6613 19.5113 26.1871 19.9997 26.661C20.9323 25.7554 21.6736 24.6719 22.1798 23.4747C22.686 22.2774 22.9468 20.9908 22.9468 19.6909C22.9468 18.391 22.686 17.1044 22.1798 15.9071C21.6736 14.7099 20.9323 13.6264 19.9997 12.7208Z" fill="#333333"/>
</svg>
