<svg width="194" height="31" viewBox="0 0 194 31" fill="none" xmlns="http://www.w3.org/2000/svg">
<path fill-rule="evenodd" clip-rule="evenodd" d="M186.677 1.65557H193.474C192.721 2.23972 192.269 2.95515 192.269 3.93436V27.3377C192.269 28.3157 192.74 29.0131 193.474 29.5961H186.677C187.411 29.0131 187.862 28.2977 187.862 27.3377V3.93315C187.864 2.95395 187.43 2.23851 186.677 1.65557ZM29.1491 11.709C28.0386 9.31819 26.8149 6.96472 24.7625 5.25201C22.5789 3.40682 19.8099 2.29633 16.9481 2.29633C9.34214 2.29633 5.93359 9.16763 5.93359 15.9269C5.93359 22.461 9.19158 29.0685 16.5338 29.0685C19.5268 29.0685 22.4464 27.7701 24.2904 25.4155V20.1437C24.2904 18.7128 23.8195 17.7914 22.709 16.9447H30.4848C29.6562 17.8853 29.1491 18.8453 29.1491 20.1437V25.4155C25.59 28.7301 21.1661 30.762 16.252 30.762C7.57282 30.762 0.473877 24.3797 0.473877 15.4933C0.473877 6.66361 7.47767 0.619751 16.0448 0.619751C21.3732 0.619751 25.6839 2.57817 29.1491 6.51306V11.709ZM48.2021 1.65557H55.5262C54.5278 2.38907 54.1893 3.21772 54.1893 4.44143V21.5191C54.1893 26.2056 59.6864 28.5036 63.7164 28.5036C67.6706 28.5036 72.8292 26.1887 72.8292 21.6131V4.44143C72.8292 3.2924 72.5461 2.50228 71.7753 1.65557H75.7668C74.9574 2.48422 74.6563 3.31167 74.6563 4.44143V21.6131C74.6563 27.7882 67.3707 30.1597 62.3241 30.1597C57.1281 30.1597 49.5402 27.8641 49.5402 21.5191V4.44143C49.539 3.27433 49.068 2.40834 48.2021 1.65557ZM121.553 11.8029C120.575 9.33626 119.426 7.17188 117.411 5.3833C115.247 3.46222 112.61 2.25778 109.693 2.25778C102.163 2.25778 98.303 8.84726 98.303 15.6824C98.303 22.5537 102.314 29.0493 109.75 29.0493C115.286 29.0493 119.24 25.1517 121.555 20.4628V25.5468C118.111 28.9553 113.667 30.6873 108.809 30.6873C99.8085 30.6873 93.0685 24.8699 93.0685 15.5885C93.0685 6.57087 99.5448 0.640234 108.376 0.640234C113.271 0.640234 118.014 2.33487 121.553 5.70488V11.8029ZM168.773 11.8029C167.795 9.33626 166.644 7.17188 164.631 5.3833C162.467 3.46222 159.83 2.25778 156.913 2.25778C149.381 2.25778 145.54 8.84726 145.54 15.6824C145.54 22.5537 149.531 29.0493 156.97 29.0493C162.505 29.0493 166.476 25.1517 168.775 20.4628V25.5468C165.329 28.9553 160.904 30.6873 156.029 30.6873C147.028 30.6873 140.29 24.8699 140.29 15.5885C140.29 6.57087 146.766 0.640234 155.594 0.640234C160.489 0.640234 165.235 2.33487 168.775 5.70488L168.773 11.8029Z" fill="#333333"/>
</svg>
