<svg width="130" height="76" viewBox="0 0 130 76" fill="none" xmlns="http://www.w3.org/2000/svg">
<path fill-rule="evenodd" clip-rule="evenodd" d="M0 37.4922H7.78662V40.3238H5.37939V45.0656H14.156V40.3238H11.6789V37.4922H19.606V40.3238H17.0583V54.2673H19.606V57.0276H11.6789V54.2673H14.156V47.8259H5.37939V54.2673H7.78662V57.0276H0V54.2673H2.47784V40.3238H0V37.4922ZM93.1452 37.4922H109.142V42.9429H106.452V40.3238H98.6665V44.9956H105.319V47.7553H98.6665V54.2673H106.382V50.5163H109.212V57.0276H93.1452V54.2673H95.7642V40.3238H93.1452V37.4922ZM23.2158 37.4922H39.2827V42.9429H36.5224V40.3238H28.7365V44.9956H35.3897V47.7553H28.7365V54.2673H36.4518V50.5163H39.2827V57.0276H23.2158V54.2673H25.8349V40.3238H23.2158V37.4922ZM97.817 34.8738H103.55L104.966 36.5721H99.3747L97.817 34.8738ZM124.854 45.8444C122.872 45.348 121.528 45.42 119.475 44.7831C117.705 44.1461 117.352 43.0834 117.352 42.3759C117.352 41.597 118.13 39.6862 120.962 39.6862C123.793 39.6862 125.704 41.597 125.775 43.2247H128.535V37.4922H125.845V38.7674L125.987 39.1205C125.915 39.1205 125.845 38.908 125.561 38.6961V38.6255C124.784 37.9173 123.156 37.0678 120.749 37.0678C117.847 37.0678 114.45 38.908 114.45 42.3759C114.45 45.7738 116.856 46.9058 118.98 47.4721C121.033 48.0384 122.094 48.0384 123.863 48.5334C125.561 48.9578 126.695 50.0192 126.695 51.5769C126.695 52.9927 125.775 54.9035 122.094 54.9035C118.484 54.9035 116.998 52.9214 116.573 50.1611H113.954V57.0262H116.643V55.7523L116.573 55.3979C116.573 55.3979 116.643 55.6104 116.997 55.8223V55.8943C118.341 56.9556 120.182 57.6632 122.447 57.6632C125.066 57.6632 129.526 56.3194 129.526 51.6475C129.526 48.2517 127.756 46.6939 124.854 45.8444ZM86.8464 54.2673V40.3238H89.4648V37.4922H82.3871L77.6446 48.9585L77.5747 49.5255L77.4328 48.9585L72.7609 37.4922H65.6126V40.3238H68.231V54.2673H65.6126V57.0276H73.6097V54.2673H71.1326V40.6063L71.3465 41.2446L76.7958 54.2673H78.3536L83.8029 41.2446L83.9448 40.5357L84.0154 41.3145V54.2673H81.5376V57.0276H89.4648V54.2673H86.8464ZM29.7985 29.9901H27.1088V29.2825H29.0909C29.1616 29.4238 29.586 29.7776 29.7985 29.9901ZM97.3926 29.9901C97.3926 29.7069 97.6751 29.4238 98.0295 29.2825H99.4454V29.9901H97.3926ZM52.943 30.4851C51.7398 31.0514 50.2533 30.9808 49.0501 30.4851H34.9654C34.2925 30.7655 33.5709 30.9099 32.842 30.9099C32.1131 30.9099 31.3914 30.7655 30.7186 30.4851H27.1088V31.8296H99.4454V30.4851H52.943ZM35.8148 29.9901C36.0274 29.8482 36.5224 29.3532 36.593 29.2825H47.493C47.6343 29.4951 47.9887 29.8489 48.2006 29.9901H35.8148ZM51.0322 29.565C52.8724 29.565 54.4295 28.008 54.4295 26.1678C54.4295 24.2569 52.8724 22.6992 51.0322 22.6992C50.1129 22.7008 49.2316 23.0668 48.5816 23.717C47.9316 24.3671 47.5658 25.2484 47.5643 26.1678C47.5643 28.008 49.1214 29.565 51.0322 29.565V30.2726C48.6963 30.2726 46.8561 28.4324 46.8561 26.1678C46.8561 23.8318 48.6963 21.9916 51.0322 21.9916C53.2968 21.9916 55.137 23.8318 55.137 26.1678C55.1363 27.2562 54.7036 28.2998 53.9339 29.0695C53.1643 29.8391 52.1207 30.2718 51.0322 30.2726V29.565ZM37.5131 25.6021C37.5131 23.0537 35.3897 20.9303 32.842 20.9303C30.2229 20.9303 28.1701 23.0537 28.1701 25.6021C28.1701 28.2212 30.2229 30.2733 32.842 30.2733C35.3897 30.2733 37.5131 28.2205 37.5131 25.6021H36.7342C36.7342 27.7961 34.9647 29.5657 32.8413 29.5657C32.3206 29.5665 31.8048 29.4646 31.3235 29.2657C30.8423 29.0668 30.405 28.7748 30.0368 28.4066C29.6686 28.0384 29.3766 27.6011 29.1777 27.1199C28.9788 26.6386 28.8769 26.1229 28.8777 25.6021C28.8777 23.4081 30.6473 21.7092 32.8413 21.7092C33.3529 21.7077 33.8598 21.8074 34.3328 22.0025C34.8058 22.1976 35.2355 22.4843 35.5973 22.8461C35.9591 23.2079 36.2458 23.6377 36.4409 24.1106C36.636 24.5836 36.7357 25.0905 36.7342 25.6021H37.5131Z" fill="#333333"/>
<path fill-rule="evenodd" clip-rule="evenodd" d="M53.2262 28.5038L51.8111 26.8754V26.8048C51.8824 26.7342 51.8824 26.6629 51.9523 26.5923L54.0757 27.1586C54.1463 27.1586 54.2882 27.2292 54.2882 27.2998C54.2882 27.2292 54.3595 26.946 54.4295 26.8048C54.3588 26.8754 54.2169 26.8754 54.0757 26.8754L52.0942 26.3098C52.0229 26.3098 52.0229 26.2385 52.0229 26.2385V25.884L54.0757 25.1051C54.0757 25.1051 54.2882 25.1051 54.2882 25.1758C54.2882 25.1051 54.1463 24.7514 54.1463 24.6807C54.1463 24.7514 54.0044 24.8933 53.9337 24.8933L54.0757 24.822L51.9523 25.6009C51.9523 25.6715 51.9523 25.6009 51.8817 25.6009C51.8793 25.564 51.8635 25.5293 51.8374 25.5032C51.8113 25.4771 51.7766 25.4614 51.7398 25.4589C51.7398 25.3876 51.6691 25.317 51.7398 25.317L52.8724 23.5474C52.9437 23.4768 53.085 23.4055 53.1556 23.4055C53.0843 23.4055 52.8018 23.1929 52.6599 23.1223C52.7312 23.1223 52.7312 23.3349 52.6599 23.4055L51.5272 25.1751H51.386C51.386 25.1751 51.2441 25.1044 51.1734 25.1044C51.1734 25.1044 51.1021 25.1045 51.1021 25.0331L51.0315 22.9811C51.0315 22.8392 51.0315 22.6979 51.1734 22.6979H50.6071C50.6784 22.6979 50.749 22.9105 50.749 22.9811L50.8203 25.0331C50.8203 25.1045 50.749 25.1044 50.749 25.1044C50.749 25.1044 50.6071 25.1751 50.5365 25.2464C50.5365 25.2464 50.4659 25.2464 50.4659 25.1751L49.1214 23.5474C49.0501 23.4768 49.0501 23.3349 49.0501 23.2642C48.9794 23.3356 48.6963 23.5474 48.6257 23.618C48.6963 23.618 48.8382 23.6893 48.9088 23.7599L50.2533 25.3876V25.4589C50.182 25.4589 50.1114 25.6008 50.1114 25.6715C50.1114 25.6715 50.0408 25.7421 49.9695 25.7421L47.988 25.1758C47.8461 25.1051 47.7755 25.0338 47.7755 24.9632C47.7755 25.0338 47.6336 25.3876 47.6336 25.4589C47.6336 25.4589 47.8461 25.3876 47.9167 25.4589L49.8982 25.9546C49.9695 25.9546 49.9695 26.0252 49.9695 26.0252V26.379L47.988 27.2285C47.9167 27.2285 47.7755 27.2991 47.7755 27.2285C47.7755 27.2991 47.8461 27.5823 47.9167 27.7242C47.9167 27.6529 48.0586 27.5117 48.1293 27.5117L50.0408 26.6622C50.1114 26.6622 50.1114 26.7335 50.1114 26.7335C50.182 26.7335 50.2533 26.8041 50.2533 26.8747C50.3239 26.8747 50.3239 26.946 50.3239 26.946L49.1207 28.7156C49.0494 28.7869 48.9788 28.8569 48.9081 28.8569C48.9788 28.9282 49.2619 29.14 49.3325 29.14C49.2612 29.14 49.3325 28.9275 49.3325 28.8569L50.5358 27.1586C50.5358 27.0873 50.6064 27.0873 50.6064 27.0873C50.6777 27.1586 50.7483 27.1586 50.819 27.1586C50.8896 27.1586 50.8896 27.1586 50.8896 27.2292L51.0315 29.3526C51.0315 29.4239 50.9602 29.5651 50.8896 29.5651H51.4559C51.314 29.5651 51.314 29.4239 51.314 29.282L51.1727 27.2292C51.1727 27.1586 51.2434 27.1586 51.2434 27.1586C51.314 27.1586 51.4559 27.0873 51.5265 27.0167C51.5265 27.0167 51.5978 27.0167 51.5978 27.0873L53.0129 28.645C53.0129 28.7156 53.0836 28.8569 53.0836 28.9282L53.4373 28.5744C53.3674 28.6457 53.2262 28.5038 53.2262 28.5038ZM32.7 22.9118C34.6815 22.9118 36.6636 23.1244 37.7963 23.4782C37.9375 23.4782 37.9375 23.6194 37.7963 23.6907C36.593 23.9739 34.6109 24.1857 32.7707 24.1857C30.9304 24.257 28.9483 24.1857 27.6744 23.9026C27.5332 23.9026 27.5332 23.7606 27.6744 23.7606C28.8078 23.3369 30.7186 22.9832 32.7 22.9118V22.5581C30.5767 22.6294 28.4533 23.1244 26.6837 23.7613C26.4712 23.832 26.4712 23.9739 26.6837 23.9739C28.6658 24.4696 30.7186 24.5402 32.7707 24.4696C34.7528 24.3983 36.8762 24.257 38.787 23.6907C39.0701 23.6194 38.9995 23.4782 38.8576 23.4782C36.8616 22.8698 34.7867 22.5602 32.7 22.5581V22.9118Z" fill="#333333"/>
<path fill-rule="evenodd" clip-rule="evenodd" d="M53.7219 21.6379C53.2262 21.7798 52.3767 22.0623 51.9523 22.0623C51.5985 22.0623 49.8296 21.9917 48.6256 22.0623C46.9973 22.1329 46.8561 22.3455 46.7854 22.2042C46.4317 21.6379 46.1485 20.7884 45.5822 20.2927C42.2555 20.859 38.9995 20.364 36.0273 19.302V18.8769C36.2399 18.9482 36.3811 18.9482 36.5224 18.9482C36.0273 18.2406 35.1779 18.0274 34.6821 17.2492C34.399 17.0367 34.3284 16.6123 34.0452 16.3997C34.1158 17.1786 33.4789 17.7449 33.4083 18.3812C33.8327 18.5231 34.399 18.5231 34.6115 18.4525C34.8947 18.3812 35.2485 18.4525 35.3904 18.665C35.6029 18.7357 35.7442 18.8769 36.0273 18.8769V19.302C35.6729 19.2307 35.6029 19.1607 35.3198 19.0195C34.966 19.1614 34.6828 19.0901 34.5409 18.9489C34.4696 18.8776 33.762 18.8776 33.4789 18.8776C32.5588 18.8776 31.5681 19.2314 31.0723 20.0102C30.8598 20.4346 30.9304 20.9303 31.143 21.2841C31.2849 21.4967 31.9218 22.4168 32.3462 22.6992L31.7799 22.8412C30.9304 22.0623 30.2935 21.3547 30.4354 20.4346C30.8605 18.4532 32.7 18.7357 33.1957 17.8869C33.5495 17.108 33.6907 14.8434 33.2663 14.2064C32.0631 13.7107 30.5773 13.0738 30.2935 11.658C30.2229 11.3042 30.3648 10.8791 30.7186 10.8085C31.3548 10.6673 31.7799 11.021 32.2756 11.2336C32.4882 11.0917 32.0631 10.5966 32.5588 10.5966C33.1957 10.5966 33.6201 11.8705 33.8327 11.9418L33.762 12.4369C33.3376 12.2956 31.7799 11.4461 31.6387 11.3755C31.3555 11.2336 31.0017 11.021 30.7892 11.3042C30.506 11.658 30.8605 12.0831 31.0723 12.4369C34.399 15.9047 39.9196 12.2243 43.5294 14.7015C43.6 14.4889 43.5294 14.4183 43.3875 14.3477C40.9103 12.0125 36.9468 13.2157 33.762 12.4369L33.8327 11.9418C37.7962 12.9326 43.0344 11.3049 45.0865 15.8348C46.431 17.7463 47.8468 20.7891 50.7483 20.8604C53.0842 20.931 54.6413 20.0109 55.7739 18.312C57.331 15.481 58.2511 12.225 61.0114 10.3142C61.2946 10.1723 61.4358 10.3142 61.2946 10.3848C59.9501 11.7293 58.7461 13.4996 58.1092 14.986C59.1705 19.0202 61.5064 18.1707 62.0727 18.1001C61.9308 16.6137 62.0727 12.2257 65.2581 11.1637C66.1828 10.4515 67.283 10.0031 68.442 9.86594C69.601 9.7288 70.7755 9.9081 71.8408 10.3848C69.3636 12.7207 67.8772 16.0473 67.3815 18.3826L64.6212 19.1614C64.8337 18.7364 64.8337 18.0288 64.7631 17.2506C64.48 17.3918 64.1968 17.6044 63.5599 17.9582C63.2767 18.0288 63.4885 17.6044 63.4885 17.6044C63.4885 17.4632 64.1961 17.18 64.7624 16.8262C64.5499 15.1979 64.4086 13.0745 65.7532 11.73C62.9935 12.6501 63.7717 18.4539 64.0549 19.1621C63.276 19.5159 62.2147 19.5159 62.2147 19.5159L62.0727 18.5245C60.8695 18.9496 58.8167 18.6664 57.8966 15.481C56.9066 17.5331 56.0571 20.7884 53.7219 21.6379ZM96.8975 13.0032C96.7556 12.8613 96.6836 12.7906 96.5431 12.7906C96.4711 12.72 96.5431 12.6487 96.6137 12.6487C96.6843 12.5781 96.8262 12.6487 96.8975 12.7906C96.9682 12.8613 96.9682 13.0032 96.8975 13.0032Z" fill="#333333"/>
<path fill-rule="evenodd" clip-rule="evenodd" d="M33.5495 26.6636L35.0353 28.3625C35.1772 28.5045 35.1772 28.7163 35.1066 28.7876C35.3191 28.7163 35.6023 28.3625 35.7435 28.2213C35.6722 28.2919 35.3897 28.2919 35.3191 28.15L33.7621 26.451V26.3098L33.8327 26.2385C33.8327 26.1679 33.9033 26.1679 33.9033 26.1679L36.0973 26.9467C36.3099 27.088 36.3805 27.2299 36.3805 27.3005C36.4518 27.1593 36.593 26.7349 36.6636 26.5929C36.5923 26.6643 36.3805 26.7349 36.2392 26.6643L34.0452 25.8854C33.9746 25.8854 33.9746 25.8854 33.9746 25.8148V25.6728C33.9746 25.6022 34.0452 25.6022 34.0452 25.6022L36.3098 25.2484C36.593 25.1771 36.7342 25.3191 36.7342 25.3897C36.7342 25.2484 36.6636 24.7527 36.6636 24.6108C36.6636 24.6821 36.5217 24.894 36.2392 24.9646L34.0452 25.3184C33.9746 25.3184 33.9746 25.2478 33.9746 25.2478C33.9033 25.1764 33.9033 25.1058 33.8327 25.0352V24.9646L35.6023 23.4789C35.8148 23.3369 36.0267 23.3369 36.0973 23.4075C35.9561 23.2656 35.6729 22.9118 35.5317 22.7706C35.603 22.8412 35.5317 23.0538 35.3897 23.2656L33.6908 24.6814C33.6195 24.752 33.6195 24.752 33.6195 24.6814C33.5488 24.6814 33.4782 24.6814 33.4076 24.6101C33.4076 24.6101 33.337 24.5395 33.4076 24.5395L34.1865 22.3455C34.2129 22.2698 34.2601 22.2031 34.3226 22.1531C34.3852 22.103 34.4606 22.0715 34.5403 22.0624C34.3983 21.9917 33.9033 21.7792 33.7614 21.7792C33.832 21.7792 33.9739 22.0624 33.9026 22.2742L33.1238 24.3976C33.1238 24.4689 33.0531 24.4689 33.0531 24.4689H32.8406L32.7693 24.3976L32.3449 22.133C32.3449 21.8498 32.4868 21.7086 32.4868 21.7086C32.3449 21.7086 31.9205 21.7799 31.7079 21.8505C31.7786 21.8505 31.9911 21.9924 32.0617 22.2043L32.4868 24.3983C32.4868 24.4696 32.4868 24.4696 32.4155 24.5402C32.3449 24.5402 32.2743 24.6108 32.203 24.6108H32.1323L30.5774 22.9118C30.4354 22.6993 30.4354 22.4874 30.5068 22.4874C30.3648 22.5581 30.011 22.8412 29.9404 22.9831C30.0117 22.9831 30.2236 22.9831 30.3655 23.1244L31.9226 24.8234V24.8947L31.7806 25.0359H31.71L29.5867 24.2577C29.3741 24.1864 29.2329 23.9746 29.3035 23.9039C29.1616 24.1165 29.0909 24.5409 29.0203 24.6828C29.0909 24.6115 29.3035 24.5409 29.5153 24.6115L31.6387 25.3191V25.6728L29.3741 26.0972C29.1616 26.0972 28.9497 25.956 28.9497 25.8847C28.9497 26.0972 29.021 26.5923 29.0916 26.7342C29.0916 26.6629 29.1623 26.451 29.4454 26.3804L31.6394 25.956C31.6394 25.956 31.7107 25.956 31.7107 26.0266C31.7107 26.0972 31.7107 26.0972 31.7813 26.1686V26.2392L30.0117 27.6543C29.7992 27.8668 29.5867 27.7962 29.5867 27.7256C29.5867 27.9381 29.9404 28.2919 30.0117 28.3625C30.0117 28.2919 30.0117 28.0794 30.1537 27.9381L31.9939 26.523C31.9939 26.4517 31.9939 26.4517 32.0645 26.523L32.2064 26.6643C32.2777 26.6643 32.2777 26.6643 32.2777 26.7356L31.4989 28.8582C31.4276 29.0708 31.2157 29.2127 31.1451 29.1414C31.287 29.2127 31.7114 29.4246 31.924 29.4246C31.782 29.4246 31.7114 29.212 31.782 29.0002L32.5609 26.8062C32.5609 26.8062 32.5609 26.7356 32.6322 26.7356C32.7028 26.8062 32.7734 26.8062 32.8447 26.8062C32.8447 26.8062 32.9154 26.8062 32.9154 26.8768L33.3405 29.0708C33.3405 29.354 33.1985 29.4952 33.1279 29.5658C33.3405 29.5658 33.7649 29.4246 33.9068 29.3533C33.8362 29.4246 33.6236 29.212 33.6236 29.0701L33.1992 26.8055V26.7349C33.2698 26.7349 33.3411 26.6636 33.4118 26.6636C33.4789 26.5923 33.4789 26.5923 33.5495 26.6636ZM95.9062 13.2857C95.8342 13.2151 95.9062 13.1445 95.9062 13.0732C95.9768 12.8606 96.0467 12.8606 96.0467 12.6488C95.6936 12.3656 95.6223 11.7993 95.8342 11.658C96.0467 11.4455 96.755 11.7287 96.755 11.7287C97.3919 11.2336 97.6044 10.8792 97.9582 10.6673C98.4532 10.6673 99.444 11.5874 99.444 12.1537C99.302 12.3663 98.9476 12.7201 98.3826 13.4276C98.5952 13.9226 98.5952 14.2771 98.2407 14.5603C98.1701 14.5603 98.0281 14.5603 97.8862 14.4184C97.9582 15.1259 98.7357 15.5503 99.0196 16.1173C99.0196 17.25 100.223 18.6651 98.8776 19.5852C98.5952 19.7271 98.3113 19.939 98.1708 20.2221C98.3833 21.3548 98.8077 22.5581 99.0202 23.7613L97.6751 23.8319C97.5345 24.257 97.1101 25.0352 97.2507 25.4603C97.2507 25.4603 97.18 25.389 97.3227 25.4603C97.5352 25.7435 97.6051 28.0794 97.5352 28.2912C97.5352 28.5744 97.7477 28.5744 97.6058 29.0701C97.4639 29.1407 96.899 29.4945 96.827 29.707C96.4725 30.0608 95.4832 30.1321 95.4832 29.9902C95.4832 29.6364 96.19 29.2113 96.3326 28.7869C96.4732 27.088 96.3326 25.389 95.4118 24.0445C95.0588 23.8319 94.7749 24.3983 94.5624 24.6814C94.9168 25.7428 95.5538 26.8754 95.4832 28.0787C95.4832 28.4325 95.9076 28.9282 95.6957 29.4232L94.5624 29.9895H90.4569C90.3163 29.777 90.0324 29.5644 90.1038 29.282H93.7828C93.7828 29.14 94.1373 29.2113 94.491 28.645C94.491 26.946 92.7208 24.4689 93.0053 23.6194C93.3584 22.5574 93.8548 21.7086 94.4197 20.2928L94.7036 20.2221C94.0666 22.3455 93.1458 23.4075 93.2878 24.0445C93.3584 24.3983 93.5003 24.6814 93.7122 25.1058L93.8541 25.5302C93.9247 25.7428 94.1366 26.2378 94.2785 26.3797C94.491 26.3797 94.633 26.2378 94.7735 26.1672C94.7735 25.884 94.561 25.5302 94.419 25.3177L93.8541 25.5302L93.7122 25.1058C94.1366 25.1058 94.419 24.8227 94.0666 24.6101C95.0581 24.1151 93.8541 24.2563 94.2072 24.0445C94.7735 23.7613 95.0581 22.6993 95.128 22.0624C95.128 21.9204 95.1986 21.8498 95.3405 21.8498C95.7649 22.9825 95.7649 24.4689 96.4725 25.5302V25.884C96.4019 26.1672 96.4725 26.5209 96.6144 26.7335C97.2514 26.8041 97.1807 26.6622 97.0388 25.884C96.8983 25.884 96.6144 25.8134 96.4725 25.884V25.5302C96.5445 25.4596 96.827 25.5302 96.8983 25.4596C96.6843 25.1058 96.6843 24.8227 96.6843 24.4689C96.6843 24.2563 96.8263 23.8319 96.9682 24.752C97.1807 24.8227 97.5345 23.1237 97.6051 22.5581C96.2599 22.8412 97.6051 21.2842 96.6137 21.2136L97.1101 20.3641C97.1101 20.0809 96.8976 19.8684 96.5438 20.0103L96.2599 19.6558C96.0474 19.5852 95.8355 19.2314 95.5531 19.0189C95.3405 19.2314 94.9867 19.6558 94.9161 19.939C94.8455 20.0103 95.0581 20.0802 95.1287 20.0103C95.3412 19.7977 95.4832 20.2221 95.8355 20.1515C95.9775 20.0103 96.4019 19.939 96.2599 19.6558L96.5438 20.0103C96.2599 20.1515 96.2599 20.6465 96.2599 21.001C95.7649 21.9211 95.9775 20.506 95.4105 20.506C95.0574 20.7185 94.9154 20.1522 94.7036 20.2228L94.4197 20.2928C94.4197 19.7977 94.4917 19.2321 94.4197 18.6658C94.8455 16.2593 95.3405 16.3299 95.4111 15.6223C95.4111 15.3391 96.4725 14.7728 96.4026 14.4897C96.4732 14.4897 96.6151 14.7022 96.6151 14.7728C96.5445 15.1266 95.8362 15.1266 95.9082 15.9048C96.3326 15.1259 97.5366 15.1972 97.6065 14.2771C97.394 13.7108 97.889 14.0646 97.889 13.4982C97.7485 13.3563 97.324 12.9319 97.252 12.7194C97.1814 12.6481 97.4646 12.2237 96.4732 12.2237C96.4026 12.295 96.3326 12.7194 96.1907 12.9312C96.1201 13.0025 95.9782 13.1438 96.0488 13.2144C96.0488 13.285 96.1907 13.3556 96.1907 13.6388C96.1201 13.922 96.1907 14.0639 96.3326 14.2051C96.899 14.4883 97.3241 14.2051 96.6857 14.5596C96.6857 14.6302 96.6857 14.7015 96.6151 14.7728C96.6151 14.7015 96.4026 14.4184 96.3326 14.347C96.2606 14.347 95.9082 14.1345 95.9782 13.852C96.0467 13.5696 96.0467 13.4283 95.9062 13.2857ZM76.8658 10.5967C76.9378 11.0924 76.6532 11.4462 76.6532 11.9419C77.1496 13.1452 76.6532 14.0653 76.7951 15.1979C76.2288 14.8441 76.0883 13.924 75.8757 12.9333C75.7338 12.0838 75.9463 11.8007 76.0163 10.8806L76.8658 10.5967ZM75.38 10.9505C75.3094 12.4362 75.0975 13.1445 76.1589 15.4804C73.4692 16.6123 71.2745 17.3912 68.0905 18.3113C68.4436 16.0467 70.6383 11.7287 72.4785 10.5254C74.0355 10.9505 75.38 10.9505 75.38 10.9505Z" fill="#333333"/>
<path fill-rule="evenodd" clip-rule="evenodd" d="M68.4429 27.5836C67.7361 27.7962 67.7361 28.2206 68.1605 28.6457C68.4429 28.8575 68.7268 29.212 68.7268 29.2826H64.1969C64.1969 29.4952 64.4094 29.6364 64.5507 29.9902H89.606C89.748 29.6364 89.3236 29.2113 89.1816 28.7869C87.4114 28.15 87.4114 26.5223 87.3414 24.6814C87.3414 24.6101 87.1995 24.3982 87.1995 24.0445C86.987 23.7613 85.7851 20.8591 86.35 18.5231L86.7744 17.745C87.1289 17.2493 86.7038 16.9661 86.987 16.3998L92.2251 15.4091C92.2957 15.3377 92.2957 15.1259 92.1545 15.0553C92.1545 14.9847 92.2251 15.0553 92.1545 15.0553L87.0583 15.9754C87.3407 14.7015 86.2088 14.2764 86.7038 13.2151C87.4107 13.9932 89.3229 15.3377 90.3143 15.5503L90.81 15.4804C89.5361 14.914 87.2715 13.5688 85.9976 11.7999C85.8557 11.7999 85.7138 11.658 85.5732 11.5874C85.5732 11.7286 85.9263 12.1537 85.8557 12.2243C85.8557 12.2243 85.0062 12.7907 83.4485 12.0824C82.9535 13.0731 77.4328 15.5503 77.4328 15.5503C77.6454 17.108 78.3536 18.0988 79.1311 18.9482C78.9186 18.8063 79.2031 19.0895 79.1311 18.9482C80.2644 19.8683 81.6083 20.2927 83.0961 20.5759C83.3785 21.4254 84.4399 24.1857 84.5105 24.6101C84.6524 25.0345 84.865 25.0345 84.865 25.0345C85.0069 25.1764 85.5019 26.0965 85.5019 26.4503L85.6438 27.9367C85.7145 28.2905 86.1389 28.0074 86.2102 28.3611L85.9976 29.2812H87.059C86.4926 28.7862 86.8464 27.9367 86.1382 27.5823C86.0675 26.7328 85.9976 26.0958 85.6432 25.7421C85.3607 24.8926 84.4399 22.628 83.8729 20.5752L84.2273 20.0795C82.6696 20.5046 81.4677 19.9383 80.0519 19.1594C78.9906 18.6637 79.6275 19.0881 79.9799 18.8762C81.6796 19.6551 82.5291 19.4426 83.8022 19.3013C83.9442 19.5139 84.2273 19.7257 84.2273 20.0795L83.8722 20.5752C84.2266 20.2214 84.5091 20.4333 84.7217 21.4247C85.0055 22.2742 85.288 22.9104 85.5005 23.6187C85.7844 24.3262 85.9969 25.247 86.2088 25.7421C86.2088 25.7421 86.4213 25.7421 86.5619 26.0252C87.0583 27.5823 87.1988 27.7948 87.1282 28.5024C87.2701 29.0687 88.049 28.5737 87.9777 29.2812H69.363C69.6455 28.1486 69.0086 27.1579 69.363 26.0958C68.6548 24.9632 66.8859 24.1144 67.1684 22.5567C68.0179 21.3534 70.7789 20.1501 70.1419 18.7343C72.6897 17.4604 73.9636 19.5838 76.3002 19.3713C77.1497 19.3713 78.0691 19.2293 78.8479 19.0175C77.8565 18.2386 77.0077 17.036 76.5127 15.974C71.5584 18.0261 66.7447 19.6544 61.4359 20.7164L61.0115 20.5745C60.5165 20.6451 52.4474 22.4853 52.7305 22.8391C49.6871 23.0517 46.1479 24.3256 45.3697 24.7499C45.0159 24.9625 44.9446 25.1037 45.3697 25.2457C48.6257 26.0951 51.3147 25.4582 56.3403 23.5467L55.9866 23.2635C55.7034 23.4761 51.5986 24.8919 49.9702 25.1037C48.2713 25.3163 46.7848 25.2457 46.0773 25.0324C45.8647 24.9618 45.8647 24.9618 46.006 24.8912C49.1914 23.6173 55.3489 22.4846 56.1984 23.5467C56.6934 23.6886 57.0479 23.9711 57.3311 24.3256C57.6142 24.68 58.1806 24.5381 58.605 24.4675C59.1706 24.3256 59.2419 23.8305 59.2419 23.3348L58.605 23.2635C58.3218 23.2635 57.1891 23.4054 57.0479 23.5467C56.6235 23.1929 56.1984 22.8391 55.6321 22.6972C56.7647 22.2022 58.605 21.7771 59.5957 21.7065C58.6756 22.3434 59.1007 23.1216 58.605 23.2635L59.2419 23.3348C59.2419 23.0517 59.2419 22.8391 59.3838 22.6979C60.0208 21.1408 62.7105 20.9283 64.055 20.5745C64.055 20.5745 63.3474 21.4946 62.8517 21.7072C62.7105 23.9012 61.9316 25.8127 61.7897 28.0067C62.4266 28.0067 62.4266 28.7142 62.5685 29.1393C62.356 29.4931 62.0728 29.1393 61.7897 29.2106C60.7989 28.7149 62.0022 27.8661 61.2233 27.1579C61.6484 25.3883 62.2854 23.6187 62.2854 21.7785C62.0022 21.7785 61.9316 22.0616 61.7897 22.2735C61.5771 24.0431 61.0821 25.6707 60.6577 27.2984C60.7989 27.4403 61.1534 27.5816 61.1534 27.8647C60.5871 28.2185 61.1534 28.8555 60.9409 29.2799H54.5001L53.8632 29.9874H63.6306L63.7012 29.6336C62.2861 28.0766 62.7811 25.8113 63.4886 24.113L65.1876 21.8484C66.6034 21.2821 67.4529 19.5838 68.9386 19.0175C68.9386 19.7963 68.0179 20.0788 67.5228 20.5039C66.9565 21.7072 65.3282 21.8484 65.1163 23.1936C65.7526 23.9012 66.674 24.3969 67.4529 25.0338C68.2304 25.5295 68.0179 26.5908 68.5849 27.0866C68.7275 27.2299 68.5849 27.513 68.4429 27.5836Z" fill="#333333"/>
<path fill-rule="evenodd" clip-rule="evenodd" d="M79.273 2.03253C78.9906 2.45693 78.4235 2.74009 78.778 3.51896C78.0698 3.94405 78.2816 4.58099 78.4942 4.93477C78.1397 5.28855 77.9278 5.9968 78.4235 6.4212C77.8572 7.05814 78.5655 7.62447 78.778 7.83632C78.4942 8.47326 78.778 8.96897 78.778 8.96897C78.706 9.39336 77.9271 10.1016 77.6447 10.3135C77.2203 11.3755 77.3622 13.5695 77.4321 15.0559C79.4143 14.0652 81.3957 13.1451 82.9534 11.7999C81.6083 10.8798 80.5462 8.68581 79.0605 8.82704C78.9186 7.26999 78.2816 4.50968 80.4763 1.67875C80.7588 1.53682 81.1832 1.46621 81.3957 1.32428C80.4763 1.18304 79.273 1.74868 78.4235 1.25366C78.4235 1.25435 78.8486 1.96191 79.273 2.03253Z" fill="#333333"/>
<path fill-rule="evenodd" clip-rule="evenodd" d="M84.0154 1.32428C84.0154 1.39559 84.2979 1.53682 84.2979 1.53682C84.2979 1.53682 84.5817 1.46621 84.5817 1.39559C84.5817 1.32497 84.6523 1.11243 84.5817 1.04181C84.5097 1.04181 84.2979 0.971193 84.1573 0.971193C84.1573 0.970501 84.0154 1.25435 84.0154 1.32428L83.8735 1.46621L82.8821 0.758649L83.024 0.61672C83.024 0.61672 83.4484 0.191632 83.6609 0.191632C83.8735 0.121014 85.0061 0.191631 85.2893 0.404176C85.5018 0.616721 85.6438 0.757957 85.9262 1.25366C86.7051 1.8193 87.979 1.8193 88.7578 2.45624C88.6159 2.66878 88.9704 3.02256 88.6872 3.1638C88.4747 3.23511 87.979 3.09318 87.9084 3.23511L87.8377 3.6595L87.5539 3.58819C87.5539 3.58819 87.6958 3.09318 87.5539 3.09318C87.412 3.02256 87.1295 2.88064 86.9876 2.95125C86.9169 3.02256 86.9876 3.09318 87.0596 3.23442C87.0596 3.37565 87.4127 3.44696 87.6259 3.37565L87.9084 3.44696L88.2628 3.51758C88.1209 3.87135 88.0503 4.01259 87.5546 3.87136C87.4127 4.22514 88.1915 4.5083 88.2628 4.65023C88.1908 4.79215 88.0503 4.93339 87.5546 4.65023C87.5546 4.65023 85.5018 6.63236 84.2986 7.19869C83.0247 7.76501 84.2279 6.91552 84.2279 6.91552C84.7943 6.70298 87.2714 4.57961 87.2714 4.36775C87.1994 4.22583 87.0589 3.94336 87.0589 3.73081C86.7044 3.58889 85.9975 3.80143 85.7137 4.01328C85.8556 4.65023 86.9876 7.83563 86.1381 12.6487L85.9975 12.5075C86.775 7.83563 85.5011 4.08459 85.5011 4.08459C84.7943 4.36775 84.2979 4.1559 83.9448 4.22652C83.8028 7.12807 86.1381 7.55316 85.2886 11.3755C82.8114 10.9511 81.0425 7.90694 79.6267 8.1901C79.5547 7.69439 79.0604 6.8456 79.5547 6.56174C79.4142 6.13735 79.2723 5.57102 79.9092 5.21724C79.6966 4.65092 79.6267 4.1559 80.2637 3.73151C80.1217 3.37703 80.1917 2.59886 80.9705 2.45693C81.0425 1.81999 81.325 1.32428 81.8913 1.11243C81.2544 0.829265 81.1125 0.192324 81.1125 0.192324C81.6788 0.546796 82.1738 0.758647 83.0233 0.617412L84.0154 1.32428ZM59.9501 54.2673L59.8787 50.3037C59.8787 49.1005 59.1006 47.8252 58.0385 47.1176C57.826 47.047 57.4722 46.9051 57.1891 46.9051C57.4722 46.9051 57.826 46.9051 58.1805 46.7632C59.2418 46.2682 60.5164 44.923 60.5164 42.5877C60.5164 40.8175 59.8088 39.4736 58.5342 38.5528C57.331 37.7034 55.9865 37.4915 54.5707 37.4915H43.6713V40.3231H46.1485V54.2673H43.6713V57.0269H51.4573V54.2673H48.9794V48.1091H54.3588C56.199 48.1797 56.9066 49.3829 56.9066 50.3737L57.1191 57.0262H62.4272V54.2666L59.9501 54.2673ZM54.9244 45.4201H48.9794V40.3238H54.5714C55.2083 40.3238 55.9159 40.3238 56.4822 40.5364C57.1897 40.8908 57.8274 41.6697 57.8274 42.8716C57.8267 44.3587 56.4822 45.4201 54.9244 45.4201ZM42.6799 63.9641C45.2284 63.9641 46.3603 65.3799 46.3603 67.1488C46.3603 68.9191 45.1571 70.2629 42.4674 70.2629H40.6272V75.1472H38.9995V63.9648L42.6799 63.9641ZM40.6272 68.8484H42.6093C43.8126 68.8484 44.6614 68.2101 44.6614 67.0782C44.6614 66.2287 44.1664 65.3799 42.6792 65.3799H40.6265L40.6272 68.8484ZM59.03 75.1472H57.2604L55.8452 71.8206H50.9616L49.6171 75.1472H47.8475L52.8018 63.8928H53.9344L59.03 75.1472ZM51.5985 70.3342H55.2083L53.2975 65.9448L51.5985 70.3342ZM77.6446 75.1472H76.0169V63.9641H77.6446V75.1472ZM89.3242 66.3699C88.2628 65.5204 87.2714 65.238 86.4226 65.238C85.3613 65.238 84.5104 65.733 84.5104 66.5118C84.5104 68.7065 89.7486 68.6345 89.7486 72.245C89.7486 73.9433 88.3328 75.2172 86.3506 75.2172C85.0767 75.2172 83.9448 74.9347 82.9541 74.2271V72.1744C83.8735 73.2357 85.0068 73.8027 86.2101 73.8027C87.5539 73.8027 88.1908 73.0239 88.1908 72.3869C88.1908 70.1223 82.8821 69.8378 82.8821 66.7957C82.8821 64.9555 84.3692 63.8221 86.5625 63.8221C87.5539 63.8221 88.4027 64.0347 89.3235 64.601V66.3699H89.3242ZM70.7795 73.8027C70.5669 73.5189 70.3551 73.2364 70.1425 72.882C69.293 71.4661 68.5848 70.4747 67.5234 69.8385C68.7973 69.3435 69.5056 68.3527 69.5056 67.0788C69.5056 65.168 68.0185 63.9648 65.6126 63.9648H62.7104V75.1472H64.4087V70.2629H65.1162C65.965 70.2629 66.674 70.5467 68.1597 72.812L69.7174 75.1472H71.6283L70.7795 73.8027ZM65.4707 68.8484H64.4087V65.3086H65.4707C67.099 65.3086 67.7353 65.9455 67.7353 67.0082C67.8059 67.9277 67.3116 68.8484 65.4707 68.8484Z" fill="#333333"/>
</svg>
