<svg width="70" height="88" viewBox="0 0 70 88" fill="none" xmlns="http://www.w3.org/2000/svg">
<path fill-rule="evenodd" clip-rule="evenodd" d="M0.0255115 35.9987C1.78195e-07 35.5826 0 35.1755 0 34.7598C0 34.4909 0.00850419 34.214 0.00850419 33.9451C0.302948 26.2943 2.9455 19.4238 7.53808 13.4621C15.2409 3.87089 26.392 -1.02464 38.8166 0.179713C46.7714 1.04657 53.7721 4.3471 59.6286 10.0834C66.101 16.5729 69.6529 24.9167 69.974 33.9451C70 34.3522 70 34.7683 70 35.1755C70 35.4439 70 35.7213 69.9915 35.9987C69.6965 43.641 67.054 50.511 62.4625 56.4727C54.7591 66.0644 43.6165 70.9599 31.1924 69.7641C23.2297 68.8972 16.229 65.5962 10.3714 59.8519C3.89846 53.3624 0.355033 45.0186 0.0255115 35.9987ZM69.3059 35.9987C69.7396 22.179 61.4994 8.94818 48.521 3.40318C44.4573 1.67 40.073 0.691003 35.3162 0.612875C34.0773 0.647421 32.6561 0.690472 31.4172 0.82919C20.1014 1.92937 9.34035 9.38081 4.31461 19.7347C2.10522 24.0754 0.900871 28.8067 0.675521 33.9445C0.268402 47.7648 8.49954 60.9951 21.479 66.5316C25.5427 68.2642 29.927 69.2523 34.6832 69.3304C35.9232 69.2868 37.3428 69.2528 38.5822 69.1135C49.9066 68.0134 60.6586 60.5619 65.6849 50.199C67.8937 45.8578 69.1066 41.1276 69.3234 35.9982L69.3059 35.9987ZM62.3402 16.313L60.5289 17.5519L60.1824 17.3962C59.6541 16.7722 59.1869 15.8889 58.5279 15.351H58.4322L57.5053 16.1573L57.6961 16.3911C57.5194 16.3377 57.3398 16.2942 57.1582 16.2609C57.0041 16.2409 56.8529 16.2031 56.7075 16.1482L56.639 16.0616L58.5273 14.3895C59.2725 15.1347 59.8103 15.984 60.4593 16.7897C60.8319 16.634 61.1879 16.3566 61.5169 16.0797C60.6761 14.7451 59.5674 13.4111 58.4317 12.2843L58.2935 12.3104C57.3309 13.1682 56.5082 14.1126 55.5632 14.9184C54.3424 13.7831 53.1466 12.6223 51.7689 11.7209L51.6472 11.5822C52.1415 10.8716 52.6087 10.161 53.12 9.47701C53.8476 10.0228 54.6358 10.6208 55.4245 11.2097C55.7014 10.9498 55.9703 10.5942 56.1877 10.2998V10.1871C55.0695 9.18204 53.8736 8.31571 52.6342 7.52752H52.47C51.8024 8.57561 51.0748 9.59819 50.5109 10.6723L50.4073 10.7499C48.9956 9.8921 47.5394 9.06033 46.006 8.43636C46.3185 7.64816 46.5779 6.82489 46.9686 6.0537C47.8955 6.42628 48.7613 6.93757 49.6802 7.31014L50.2521 6.236C50.0188 5.9591 49.6627 5.83739 49.3512 5.66412C48.3026 5.15283 47.2285 4.67662 46.1283 4.30352L46.0246 4.36411L44.7687 7.89903L44.6901 7.94261C43.8668 7.68271 43.0355 7.41431 42.2123 7.19746C41.4501 6.95458 40.6178 6.87645 39.8121 6.72072C39.8897 5.88044 40.1071 5.03112 40.2107 4.1648L40.2883 4.13025C41.2072 4.36411 42.1777 4.50283 43.0786 4.73668C43.1907 4.32053 43.33 3.91341 43.4076 3.48025C41.9775 3.05489 40.5093 2.77043 39.0239 2.63093C38.8671 3.78319 38.7374 4.953 38.5732 6.11429C38.4079 5.89798 38.2782 5.63808 38.165 5.39519C38.157 5.33231 38.1394 5.27102 38.1129 5.21342C38.2522 4.14779 38.2957 3.03008 38.4775 2.0075C38.6768 1.92937 38.789 2.02504 38.9883 2.02504C40.7649 2.23448 42.5211 2.59091 44.2388 3.09067C44.0055 3.87089 43.7626 4.65908 43.5463 5.44781C43.0169 5.40423 42.4887 5.17091 41.9343 5.09278C41.5414 4.99179 41.1418 4.91932 40.7385 4.87593C40.5827 5.26551 40.5827 5.72525 40.4791 6.14937C40.8177 6.27108 41.1892 6.28809 41.5277 6.40927C42.4722 6.64312 43.4076 6.87698 44.3345 7.17195C44.7852 5.97611 45.1057 4.7202 45.5564 3.51532C47.4798 4.0872 49.2736 4.93652 51.0583 5.88097L51.1195 5.94156C50.7208 6.66119 50.3127 7.41484 49.9151 8.14245C49.0743 7.72629 48.251 7.23254 47.3666 6.90302C47.2285 6.92056 47.2285 7.07629 47.1684 7.17195L46.7698 8.08186C47.9125 8.68828 49.0918 9.18204 50.192 9.89263C50.9361 8.827 51.5521 7.6657 52.2537 6.60911C53.9518 7.60565 55.5632 8.84454 57.1146 10.1616L57.0971 10.2833L55.5377 12.0335H55.3645C54.7288 11.4597 54.0666 10.9161 53.3799 10.4045L53.2582 10.3789L52.513 11.384C53.5191 12.2333 54.5933 13.1342 55.5983 14.0786L58.3365 11.3664C59.8438 12.8392 61.2039 14.4857 62.3997 16.1838L62.3402 16.313ZM63.1114 18.7392L62.7293 18.947C62.5475 18.8083 62.3567 18.6786 62.1749 18.5399C62.5911 18.3061 62.9982 18.0632 63.4048 17.8123C64.2218 19.086 64.9265 20.4283 65.5111 21.824C65.4064 21.6853 65.3022 21.5556 65.181 21.4514C64.8871 20.9492 64.4274 20.507 64.0202 20.0653C63.7774 19.6146 63.526 19.1559 63.2315 18.7398L63.1114 18.7392ZM7.08738 18.4443L9.01933 19.5795C8.90666 19.7352 8.73286 19.874 8.60318 20.0302C7.80595 19.588 7.01775 19.1639 6.23806 18.6956C6.47138 18.1844 6.76636 17.6906 7.08738 17.2054C7.94467 15.8277 8.95024 14.5453 10.0329 13.3064H10.128C10.6824 13.8437 11.3499 14.372 11.8957 14.8833C11.3499 15.7236 10.6048 16.5554 10.0329 17.3962L10.0504 17.4738L10.1976 17.5779C10.0122 17.723 9.83841 17.8824 9.67784 18.0547C9.49404 17.9303 9.31207 17.8033 9.13201 17.6736V17.5779C9.74693 16.7231 10.3738 15.8769 11.0124 15.0396C10.7956 14.7276 10.449 14.5458 10.1285 14.2769H9.97282C8.87211 15.5939 7.83252 16.963 7.08738 18.4443ZM6.524 31.4322C6.47075 31.8064 6.42733 32.1819 6.39379 32.5584C6.15993 32.6365 5.84795 32.593 5.58805 32.576L3.88145 32.4202C3.86391 31.5364 4.07172 30.6615 4.19343 29.7777L4.26306 29.7516C4.3667 30.1067 4.45333 30.4798 4.62712 30.8088C4.58354 31.1383 4.549 31.4673 4.53146 31.7878C4.93911 31.8829 5.35473 31.9265 5.78789 31.9435L5.85752 31.5103H5.9957C6.20351 31.5794 6.36774 31.5103 6.524 31.4322ZM6.39379 21.5205C6.25507 21.4684 6.10785 21.4169 6.00421 21.3302C5.86549 21.2957 5.70923 21.1915 5.57104 21.2346C5.30246 21.7634 5.05111 22.3009 4.8174 22.846C4.43632 23.2186 4.07225 23.5912 3.75177 24.0073C4.20247 22.7424 4.71323 21.5035 5.33719 20.3082L5.43233 20.2731C5.94362 20.5596 6.48946 20.8104 7.02679 21.0788C6.80994 21.217 6.60213 21.3648 6.39379 21.5205ZM36.8666 6.36622C35.819 6.31708 34.7698 6.31141 33.7218 6.34921C33.6266 5.46535 33.6006 4.58149 33.6006 3.77575C34.5881 3.65404 35.455 3.79329 36.4515 3.75821C36.5291 3.34259 36.5897 2.89189 36.494 2.47574L36.4515 2.41515C35.0994 2.33755 33.5831 2.33755 32.2054 2.51879L32.1098 2.61445C32.2054 3.83581 32.3091 5.10978 32.4653 6.31413L32.3091 6.46986C30.6546 6.56553 29.1037 6.98062 27.5868 7.29313C27.2924 6.4874 27.1191 5.66412 26.8768 4.85839L26.9979 4.75422C27.8382 4.59849 28.6875 4.42523 29.5108 4.19084C29.4593 3.75768 29.3551 3.34206 29.2424 2.9259C27.8042 3.12521 26.4696 3.49778 25.1526 3.94849V4.19084C25.4991 5.36915 25.9583 6.50441 26.2267 7.70875C25.0745 8.1164 23.9568 8.54957 22.8646 9.06032C22.7968 9.01721 22.7194 8.99149 22.6393 8.98547C22.5592 8.97944 22.4788 8.99329 22.4054 9.02578C22.137 9.25963 21.8595 9.46798 21.6172 9.69333C21.158 8.96519 20.7678 8.17646 20.3958 7.41431C21.2531 6.95511 22.146 6.58253 23.0033 6.17488C22.9512 5.74172 22.7524 5.29102 22.475 4.93599C21.0798 5.52488 19.7022 6.14884 18.4027 7.0157C19.0177 8.14192 19.7198 9.21605 20.3958 10.3168C19.0788 11.2442 17.7012 12.0669 16.4968 13.1501L15.9861 13.6008C15.4227 13.0374 14.8854 12.388 14.2965 11.738C14.7296 11.2097 15.3015 10.811 15.8303 10.3779C16.1248 10.1265 16.5234 9.91017 16.7918 9.6152C16.5755 9.25963 16.3241 8.94818 16.0472 8.61016C14.6175 9.53707 13.3525 10.6202 12.0961 11.9543C12.9188 12.7951 13.985 13.8602 14.8078 14.6835L14.4357 15.0911C14.297 15.1432 14.1668 15.1947 14.0371 15.2378C13.7076 15.385 13.3786 15.5328 13.0576 15.6885C13.2308 15.4802 13.4131 15.2814 13.5949 15.0821L13.9414 14.6835C13.0576 13.7215 12.1392 12.9939 11.2293 11.9543C12.728 10.2992 14.4782 8.99974 16.1678 7.72576H16.2805L17.5975 9.64974V9.83151C16.7913 10.4204 15.9685 11.0268 15.2409 11.6938V11.798C15.5008 12.1445 15.7517 12.3874 16.0466 12.7164C17.1904 11.8326 18.3251 10.9142 19.5295 10.1254C18.8364 9.04225 18.1864 7.94208 17.5194 6.85891C19.3132 5.80231 21.0804 4.81428 22.9517 4.06913C23.2637 4.81428 23.5932 5.603 23.8531 6.3912L23.8356 6.46933C22.9693 6.8419 22.0594 7.19746 21.2361 7.68218C21.3578 8.09833 21.6347 8.43583 21.8255 8.82594C23.0326 8.26342 24.2578 7.74051 25.4991 7.25805C25.1266 6.01863 24.6589 4.83182 24.3038 3.57538C26.1146 3.02954 27.9599 2.49221 29.8488 2.22381C30.0221 3.0035 30.0481 3.87036 30.2995 4.64154C29.7882 4.83182 29.2164 4.83182 28.7051 4.99658C28.3325 5.04866 27.9599 5.12626 27.6309 5.30803L27.8993 6.52992C28.4712 6.52992 28.9825 6.25248 29.5544 6.23547C30.2825 6.05317 31.0447 5.97558 31.7723 5.83686C31.7383 4.56342 31.5039 3.28094 31.3997 2.0245L31.4433 1.94637C33.3322 1.80819 35.2556 1.71252 37.144 1.86825C37.2216 2.65697 37.0058 3.49725 37.0404 4.26844C37.084 4.38112 36.9447 4.36411 36.8671 4.38112C36.0614 4.34657 35.0563 4.26844 34.3112 4.36358C34.2506 4.71914 34.2676 5.2299 34.3112 5.63702C35.2902 5.6891 36.2346 5.72365 37.1791 5.76723L37.1531 5.83633C37.0574 6.01119 36.9617 6.19295 36.8666 6.36622ZM66.1095 31.4152L66.1781 31.8313C66.6118 31.8053 67.0625 31.7708 67.4515 31.6496L67.4255 31.3806C67.5291 31.3286 67.6599 31.3116 67.7545 31.2425C67.8076 31.1734 67.8501 31.0517 67.9277 31.0341C68.0234 31.5018 68.067 31.935 68.101 32.3596C67.2777 32.4208 66.4119 32.5589 65.6232 32.4989C65.5796 32.0397 65.5371 31.5714 65.476 31.1128C65.5196 31.1037 65.5631 31.0867 65.5977 31.0782C65.7194 31.2334 65.9012 31.3631 66.1095 31.4152ZM63.7354 34.6211C63.7227 33.218 63.5949 31.8184 63.3532 30.4362C63.5786 30.6525 63.813 30.8688 64.0548 30.9905C64.194 31.9525 64.3152 32.914 64.3237 33.9451L64.3933 34.9671L64.4709 35.0192L68.0489 35.0452C68.11 35.0973 68.2222 35.0628 68.2397 35.1579C68.2222 37.4194 67.9107 39.5857 67.5201 41.6474L67.46 41.708C66.6713 41.5087 65.848 41.3875 65.0588 41.2142C64.903 40.9804 65.1544 40.7635 65.1199 40.5041C65.2953 39.7281 65.414 38.9403 65.4749 38.147C65.0592 38.0557 64.6359 38.0036 64.2105 37.9913C63.9591 39.5071 63.7247 41.0149 63.3261 42.4536C63.6211 42.687 64.0713 42.67 64.4523 42.8262C65.3107 43.0431 66.1425 43.2769 66.9822 43.5363L67.0258 43.5974C66.3758 45.659 65.6657 47.7042 64.6692 49.6276L64.5656 49.6712C63.8805 49.2726 63.1364 48.9601 62.4428 48.5886C62.7542 47.6606 63.2485 46.8209 63.56 45.8759C63.1529 45.6941 62.7542 45.4773 62.3301 45.4252C61.8194 46.7767 61.1258 48.0762 60.4587 49.3763C61.56 50.0263 62.6772 50.5896 63.7609 51.2396C63.5265 51.7504 63.2315 52.2447 62.9201 52.7384C62.0532 54.1065 61.0487 55.3895 59.9655 56.6279H59.8699C59.3155 56.0996 58.648 55.5628 58.1021 55.0509C58.648 54.2112 59.3937 53.3879 59.9655 52.5386L59.948 52.461L58.969 51.7674C58.1377 52.79 57.2969 53.8726 56.412 54.8607L56.058 55.2508C56.9424 56.2133 57.8603 56.9409 58.7707 57.98C57.272 59.6355 55.5218 60.9356 53.8316 62.209H53.7195L52.4019 60.2855V60.1027C53.2077 59.5144 54.0304 58.9079 54.7585 58.2404V58.1447C54.4992 57.7897 54.2478 57.5553 53.9528 57.2178C52.8091 58.1011 51.6743 59.0291 50.47 59.8088C51.1625 60.8914 51.812 61.9916 52.4795 63.0748C50.6858 64.141 48.9191 65.12 47.0557 65.8651C46.7347 65.12 46.4057 64.3318 46.1463 63.551L46.1628 63.4649C47.0297 63.0923 47.939 62.7453 48.7623 62.2515C48.6406 61.8364 48.3733 61.5074 48.174 61.1088C46.9648 61.6697 45.7398 62.1955 44.5003 62.6857C44.8729 63.9241 45.3401 65.1035 45.6962 66.3594C43.8849 66.9137 42.039 67.442 40.1506 67.7195C39.9774 66.9318 39.9598 66.0649 39.6999 65.2937C40.2107 65.104 40.7826 65.104 41.2933 64.9472C41.6659 64.8872 42.0385 64.809 42.377 64.6262L42.1001 63.4139C41.5283 63.4139 41.0164 63.6828 40.4456 63.7089C39.7169 63.8821 38.9548 63.9602 38.2272 64.0979C38.2612 65.3809 38.5041 66.6538 38.5998 67.9108L38.5562 67.9884C36.6763 68.1266 34.7438 68.2313 32.8549 68.066C32.7773 67.2863 32.9936 66.4375 32.9586 65.6743C32.915 65.5536 33.0542 65.5706 33.1318 65.5536C33.9381 65.5962 34.9426 65.6743 35.6877 65.5701C35.7478 65.2151 35.7313 64.7033 35.6877 64.2967C34.4143 64.2366 33.1924 64.193 31.9711 64.1149C31.7542 65.3533 31.7372 66.7144 31.5204 67.9358C31.321 68.0134 31.2084 67.9097 31.0096 67.9097C29.2338 67.6988 27.478 67.3451 25.759 66.8521C26.0019 66.0644 26.2353 65.2751 26.4521 64.4875C26.9809 64.5311 27.5092 64.7644 28.0636 64.8425C28.4548 64.9509 28.855 65.0235 29.2594 65.0594C29.4151 64.6693 29.4151 64.2186 29.5193 63.7859C29.1813 63.6642 28.8087 63.6467 28.4707 63.5255C27.5347 63.2922 26.5903 63.0583 25.6634 62.7633C25.2132 63.9592 24.9007 65.2151 24.4415 66.4194C22.518 65.8476 20.7333 64.9982 18.9395 64.0628L18.8789 64.0017L20.0833 61.8008C20.9241 62.209 21.7554 62.7017 22.6392 63.0402C22.7694 63.0142 22.7694 62.8585 22.83 62.7633L23.2286 61.854C22.0849 61.2465 20.9066 60.7527 19.8064 60.0506C19.0612 61.1083 18.4463 62.2691 17.7442 63.3352C16.0546 62.3291 14.4346 61.0908 12.8838 59.7737L12.9098 59.652L14.4607 57.9018H14.634C15.2733 58.474 15.9352 59.0204 16.618 59.5399L16.7397 59.5574L17.4849 58.5513C16.4793 57.7116 15.4051 56.8011 14.4001 55.8567L11.6709 58.5774C10.1546 57.0961 8.79398 55.4496 7.59867 53.761L7.65926 53.6218L9.60025 52.3042C10.2327 52.9282 10.7265 53.9763 11.4716 54.5838H11.5667L12.4937 53.777C11.5667 52.6332 10.6829 51.4724 9.97229 50.233L9.89416 50.1809C8.79398 50.8485 7.67626 51.4544 6.59309 52.1219C5.4225 50.3113 4.49055 48.3572 3.82033 46.308C3.97605 46.1698 4.21894 46.1698 4.35766 46.0486C4.92104 45.8318 5.53597 45.6415 6.12539 45.4592C6.48042 46.3861 6.82695 47.3306 7.32123 48.2155C7.77193 48.2155 8.12696 47.8769 8.54259 47.7037C7.92661 46.3283 7.38009 44.9229 6.90508 43.4927C5.69222 43.8483 4.47034 44.2033 3.24898 44.5934C2.50383 42.4095 2.11372 39.9578 1.89741 37.5746C2.72068 37.5225 3.587 37.3843 4.37573 37.4359C4.48841 38.519 4.56653 39.6623 4.84344 40.7024L4.90403 40.7805C5.35473 40.763 5.77035 40.6418 6.16046 40.5291C5.96966 39.0038 5.69275 37.5831 5.67522 35.9977L5.60612 34.9751L5.52853 34.9145L1.95003 34.8975C1.89794 34.8369 1.77676 34.8714 1.75922 34.7758C1.76826 33.3115 1.90644 31.8903 2.10575 30.5127C2.3311 30.4957 2.55645 30.4176 2.76426 30.3655C2.66009 30.9895 2.5995 31.6304 2.52137 32.2369C2.50437 32.9039 2.36565 33.5539 2.48683 34.2209C3.72572 34.3075 4.98216 34.2815 6.2556 34.3421L6.2641 35.3126C6.28164 37.2796 6.5325 39.2116 6.94866 41.0394L6.87053 41.1175C6.04779 41.2302 5.21601 41.4125 4.41028 41.6027C4.17642 40.468 4.02017 39.2461 3.82086 38.1109C3.3877 38.1284 2.937 38.1629 2.54742 38.2841C2.72068 40.19 3.09325 41.9232 3.58754 43.6909C4.67071 43.5341 5.69276 43.1361 6.74988 42.8847C6.96673 42.8671 7.20909 42.6248 7.4169 42.8071C7.81551 44.6349 8.60371 46.3069 9.42698 47.9535L9.3834 48.0571L7.20856 49.1583L7.10439 49.1323C6.63668 48.1958 6.20352 47.2253 5.78736 46.2463L4.60906 46.679C4.80836 47.6234 5.29361 48.4903 5.70923 49.3736C6.04726 49.98 6.35977 50.6295 6.77486 51.2014H6.88754L10.1365 49.3736L10.1891 49.4087C11.0985 50.9596 12.1992 52.4753 13.36 53.8705L11.4711 55.5426C10.7259 54.7974 10.1886 53.9481 9.54763 53.1424C9.16655 53.2981 8.81949 53.575 8.482 53.8524C9.33078 55.1875 10.4315 56.5306 11.5662 57.6478L11.7049 57.6313C12.6669 56.7645 13.4987 55.82 14.4347 55.0143C15.656 56.149 16.8604 57.3103 18.2295 58.2197L18.3506 58.3589C17.8569 59.0605 17.3887 59.7705 16.8779 60.4556C16.1104 59.88 15.3422 59.3053 14.5734 58.7315C14.305 58.9829 14.0275 59.3379 13.8112 59.6324V59.7541C14.9289 60.7495 16.1333 61.6164 17.3722 62.4051H17.5279C18.1949 61.365 18.9231 60.3424 19.4949 59.2598L19.5901 59.1822C19.893 59.364 20.1965 59.5457 20.5085 59.728C20.5951 59.8402 20.6902 59.9523 20.8029 60.048C20.8981 60.0916 20.9241 60.1952 20.9932 60.2733C21.0107 60.3084 21.0798 60.3084 21.0798 60.3605C21.6087 60.7591 22.137 61.1482 22.7694 61.331C23.1075 61.4692 23.48 61.4952 23.818 61.5728L23.9562 61.5824C23.6618 62.3445 23.4104 63.1418 23.0293 63.8784C22.1024 63.5058 21.2446 62.994 20.3171 62.6214L19.7453 63.7051C19.9791 63.973 20.3342 64.0942 20.6461 64.268C21.6948 64.7798 22.7689 65.256 23.8781 65.6291L23.9732 65.568L25.2297 62.0336L25.3078 61.99C26.1311 62.2494 26.9629 62.5268 27.7861 62.7437C28.5573 62.9781 29.3806 63.0562 30.1863 63.2119C30.1082 64.0612 29.8919 64.901 29.7877 65.7678L29.7096 65.8029C28.7912 65.5685 27.8297 65.4303 26.9198 65.1954C26.8071 65.6116 26.6684 66.0187 26.5903 66.4513C28.0206 66.8772 29.4892 67.1621 30.975 67.3017C31.1483 66.0187 31.287 64.7272 31.4863 63.4452C33.0372 63.602 34.7268 63.6446 36.2782 63.5845C36.3819 64.4678 36.3999 65.3512 36.3999 66.158C35.4119 66.2797 34.5541 66.1404 33.5485 66.184C33.4709 66.5911 33.4103 67.0413 33.5055 67.4574L33.5485 67.5175C34.9006 67.5951 36.4164 67.5951 37.794 67.4218L37.8897 67.3182C37.794 66.0963 37.7 64.8229 37.5347 63.6281L37.7 63.4628C39.3454 63.3671 40.8974 62.951 42.4126 62.6395C42.7076 63.4452 42.8889 64.268 43.1238 65.0833L43.0021 65.179C42.1613 65.3347 41.3119 65.5079 40.4887 65.7498C40.5498 66.1835 40.6444 66.5906 40.7656 67.0067C42.1947 66.8074 43.5298 66.4349 44.8474 65.9842V65.7498C44.5009 64.5715 44.0406 63.4288 43.7733 62.2329C44.5269 61.964 45.272 61.6871 45.9996 61.3746C46.1729 61.3485 46.3547 61.3145 46.5365 61.306C46.8229 61.28 47.0908 61.1067 47.3677 61.028C47.7678 60.8517 48.1437 60.6246 48.4859 60.3525C48.8818 61.0667 49.2574 61.7919 49.6122 62.5274C48.7464 62.9791 47.862 63.3506 46.9962 63.7583C47.0562 64.1909 47.2476 64.6501 47.5245 64.9967C48.9196 64.4083 50.2973 63.7843 51.5967 62.9175C50.9813 61.7992 50.2792 60.7166 49.6122 59.6164C50.9297 58.6895 52.2988 57.8662 53.5027 56.7836L54.0134 56.3329C54.5853 56.9037 55.1146 57.5537 55.7035 58.1952C55.2709 58.7331 54.6985 59.1221 54.1702 59.5563C53.8752 59.8077 53.4851 60.0235 53.2077 60.3185C53.4245 60.6735 53.6759 60.994 53.9528 61.3235C55.3916 60.4046 56.6475 59.322 57.9039 57.9789C57.0041 57.0651 56.1002 56.1553 55.1922 55.2497C56.4131 53.9332 57.6876 52.4769 58.7266 50.9436H58.8824C59.5324 51.3943 60.2254 51.7929 60.8754 52.2612V52.3648C60.2527 53.2133 59.6228 54.0566 58.986 54.8947C59.2028 55.2157 59.5579 55.389 59.8704 55.6659H60.0261C61.1263 54.3483 62.1664 52.9712 62.9201 51.4979L59.6711 49.592V49.4103C60.6325 47.9019 61.3256 46.2649 61.9756 44.6354L62.0532 44.5753C62.8164 44.8878 63.6216 45.1297 64.4109 45.4246C64.1159 46.3691 63.6657 47.2524 63.2671 48.1714C63.4314 48.4307 63.7779 48.4307 63.9947 48.604C64.134 48.6476 64.2897 48.7433 64.4274 48.7076C65.181 47.2099 65.806 45.658 66.2387 44.0029C65.0168 43.6303 63.7774 43.2578 62.565 42.8852C63.0497 41.0744 63.4308 39.3242 63.6041 37.3833C63.8385 37.3051 64.1595 37.3397 64.4109 37.3572L66.1175 37.522C66.1435 38.5616 65.8486 39.5841 65.7449 40.6237C66.1175 40.7619 66.5336 40.797 66.9232 40.8836C67.2618 39.8786 67.3394 38.7348 67.4776 37.6952C67.4951 37.0282 67.6343 36.3782 67.5211 35.7112C66.2817 35.6336 65.0173 35.6506 63.7439 35.59L63.7354 34.6211ZM27.5262 60.8043C32.1789 62.0958 37.5421 62.1394 42.1862 60.8574C42.2383 60.8835 42.2899 60.9095 42.3515 60.926C42.6194 60.9871 42.8538 61.1428 43.1392 61.1949C38.4951 62.6597 33.4438 62.859 28.3405 61.6632C27.7775 61.5347 27.2197 61.3843 26.6684 61.2125C26.9634 61.0907 27.2488 60.952 27.5262 60.8043ZM8.16151 33.9451C7.78894 42.9734 12.1817 51.6122 19.3296 56.8017C19.3472 56.9234 19.3732 57.036 19.4078 57.1402C19.4078 57.3044 19.4253 57.4692 19.4599 57.6249C14.9715 54.4892 11.2893 49.9922 9.44399 45.0096C8.36082 42.2198 7.65873 39.1791 7.53755 35.9987H7.47696C7.45211 35.0596 7.47517 34.1197 7.54605 33.1829C7.7629 33.3301 7.9622 33.4774 8.17852 33.6161L8.16151 33.9451ZM61.8284 35.9987C61.9029 34.2837 61.8073 32.5655 61.543 30.8694C61.7508 30.8523 61.9501 30.7397 62.1234 30.601C62.3067 31.7074 62.4197 32.8243 62.4619 33.9451H62.522C62.6777 40.6253 60.5029 46.7167 56.6039 51.8716C54.6804 54.2537 52.4716 56.2728 50.0538 57.8758C50.0878 57.7636 50.1575 57.66 50.1931 57.5383C50.2096 57.3214 50.2967 57.1301 50.3488 56.9228C50.7763 56.6216 51.1982 56.3126 51.6143 55.9959C57.8343 50.9622 61.4218 43.9604 61.838 35.9987H61.8284ZM29.6665 8.64523C27.8122 9.00027 26.0359 9.56364 24.4245 10.3173C24.2858 10.3779 24.1476 10.447 24.0089 10.5081C23.9047 10.447 23.8186 10.3864 23.7229 10.3348C23.6623 10.2912 23.6102 10.2222 23.5672 10.1876C23.5164 10.1631 23.4696 10.131 23.4285 10.0925C25.8409 8.94653 28.4107 8.16677 31.0532 7.77891C30.6976 7.96918 30.3511 8.15999 30.0046 8.37683C29.8971 8.47265 29.7842 8.56226 29.6665 8.64523ZM45.6701 33.7633C45.5229 33.7893 45.4272 33.885 45.3576 33.9801C45.3316 34.0237 45.2976 34.0753 45.2715 34.1274L45.2194 34.2395C44.8809 34.586 44.5439 34.872 44.1012 34.9241C43.5894 34.8465 43.1387 34.586 42.7145 34.2656C42.6226 34.2312 42.5332 34.1907 42.4467 34.1444C42.351 34.0918 42.2559 34.0312 42.1602 33.9796C41.4065 33.4508 40.3404 33.5725 39.4746 33.7022C39.0324 33.7022 38.6423 33.893 38.3048 34.1268C38.1882 34.1529 38.0807 34.2096 37.9933 34.2911C37.9051 34.3615 37.8209 34.4367 37.7409 34.5164C37.6994 34.5464 37.6617 34.5814 37.6287 34.6206C37.5937 34.6636 37.5416 34.7242 37.5251 34.7933L37.5155 34.8369C37.5155 34.8629 37.507 34.889 37.507 34.9235C37.5155 35.0187 37.5931 35.0883 37.7324 35.0532L37.7924 35.0447L37.9056 35.0011L38.0438 35.0708L38.0534 34.8539C38.0534 34.8454 38.0794 34.8279 38.123 34.8018C38.1655 34.7758 38.2176 34.7497 38.2702 34.7237C38.5381 34.5329 38.781 34.4207 39.0664 34.3341C39.3433 34.2384 39.6643 34.1779 40.0725 34.0912C40.7911 34.1173 41.2423 34.1869 41.7355 34.3777C42.0645 34.5334 42.3159 34.7072 42.5243 34.8714L42.646 34.9841L42.5413 34.9405C42.4663 34.9089 42.388 34.8858 42.3079 34.8714C41.4767 34.603 40.5918 34.4553 39.6649 34.5504C38.8937 34.6891 38.1315 35.0708 37.6293 35.6421C37.6197 35.6596 37.6117 35.6681 37.5857 35.7287C37.548 35.7751 37.5188 35.8279 37.4996 35.8845C37.4786 35.9601 37.4879 36.041 37.5256 36.1098C37.4923 36.1231 37.4625 36.1438 37.4385 36.1704C37.3958 36.2404 37.3803 36.3236 37.3949 36.4043C37.4044 36.4648 37.43 36.5254 37.4385 36.586C37.4996 36.7423 37.6038 36.7938 37.6989 36.8289C37.7329 36.8465 37.7765 36.855 37.8195 36.8725C37.8692 36.8883 37.9162 36.9116 37.9588 36.9416C38.4695 37.0282 38.9202 37.2015 39.4236 37.3142C40.367 37.6001 41.4592 37.4959 42.3 37.0543C42.7762 36.855 43.2529 36.569 43.6856 36.257L43.7727 36.1704L43.8588 36.1098C43.8849 36.0753 43.8939 36.0662 43.946 36.0147L44.0236 35.8845C44.014 35.7978 43.9975 35.7372 43.946 35.6852L43.8939 35.6416L43.8067 35.581L43.7547 35.5464L43.6414 35.4768L43.5894 35.4423C43.8758 35.4508 44.2224 35.4423 44.3605 35.4247C44.5513 35.3296 44.7331 35.286 44.8888 35.2164C45.0621 35.1473 45.2189 35.0431 45.3395 34.8353C45.3656 34.8178 45.3927 34.8008 45.4092 34.7832L45.4613 34.7136C45.4963 34.67 45.5224 34.636 45.5909 34.5839C45.626 34.5143 45.6781 34.4452 45.7217 34.3761C45.7653 34.298 45.8163 34.2204 45.8434 34.1332C45.9035 34.003 45.8338 33.8648 45.7217 33.7691L45.6701 33.7633ZM38.2532 36.4234C38.1836 36.4059 38.106 36.3973 38.0364 36.3713C37.9324 36.3451 37.8425 36.28 37.785 36.1895L37.8286 36.1465C37.8982 35.9993 38.0279 35.9036 38.2096 35.7915L38.2968 35.7133C38.2663 35.8379 38.2574 35.9668 38.2708 36.0944C38.2872 36.2071 38.3133 36.3283 38.3393 36.4409L38.2532 36.4234ZM42.4637 36.4144C42.4297 36.4319 42.3951 36.4404 42.3691 36.4579L42.2559 36.5185C42.2168 36.5392 42.1761 36.5566 42.1341 36.5706L42.0645 36.5876C41.3545 37.0559 40.3494 36.9862 39.465 36.7954C39.17 36.7518 38.9543 36.5095 38.815 36.2321C38.7985 36.1885 38.7985 36.1454 38.8065 36.0763C38.8065 35.9982 38.824 35.9291 38.8326 35.851C38.8411 35.7123 38.8241 35.548 38.6418 35.4614C39.6122 34.881 40.9814 34.9071 41.9779 35.3487C42.03 35.3833 42.0815 35.4178 42.1432 35.4439C42.1942 35.4699 42.2638 35.4959 42.3154 35.5215C42.4286 35.582 42.4982 35.6341 42.5407 35.6953C42.5407 35.8425 42.5758 36.0067 42.5758 36.1539C42.5769 36.3017 42.5508 36.3803 42.4637 36.4144ZM43.0791 36.0418C43.018 36.0763 42.9755 36.0503 42.9574 35.9812C42.9314 35.834 43.0791 35.9466 43.1482 35.9376C43.1488 35.9727 43.0967 36.0163 43.0791 36.0418ZM45.8599 32.8364C45.6521 32.8624 45.4528 32.9055 45.2534 32.94C45.0541 32.9746 44.8548 33.0006 44.664 32.9746C44.3809 32.9614 44.0996 32.9208 43.8243 32.8534C43.7346 32.8047 43.6421 32.7612 43.5474 32.7232C43.4517 32.6886 43.3566 32.6626 43.2609 32.6275C43.0712 32.5754 42.8798 32.5148 42.7066 32.4027C42.2218 32.2119 41.7015 32.0992 41.2078 31.8999C40.8432 31.8478 40.5062 31.8739 40.1156 31.9345C39.8822 32.0301 39.6213 32.1082 39.3619 32.1858C39.1105 32.2725 38.8512 32.3761 38.6168 32.5584C38.5742 32.6626 38.4786 32.7232 38.3834 32.7838L38.3058 32.8359C38.2798 32.8534 38.2538 32.8704 38.2362 32.8879C38.1896 32.9292 38.1515 32.9792 38.1241 33.0352C37.9412 33.1909 37.768 33.3732 37.5782 33.5289C37.3954 33.6937 37.1881 33.8319 36.9452 33.9015C36.9027 33.9275 36.8156 33.9796 36.7895 34.0747C36.8506 34.1784 36.9713 34.1965 37.0664 34.1874H37.2317C37.2838 34.1874 37.3274 34.1874 37.3959 34.1965C37.6048 34.1274 37.7781 34.0057 37.9338 33.8584C38.0895 33.7112 38.2368 33.5555 38.3925 33.4077C38.6965 33.0612 39.06 32.7753 39.5187 32.628C39.6659 32.6195 39.7876 32.5675 39.9008 32.5069L40.0741 32.4202C40.1262 32.3942 40.1777 32.3766 40.2383 32.3511C40.342 32.3772 40.4472 32.3772 40.5508 32.3772C40.663 32.3687 40.7762 32.3596 40.8883 32.3596C41.1052 32.3511 41.313 32.3687 41.4948 32.4899C41.9109 32.5675 42.2495 32.7327 42.7167 32.8539C42.8299 32.9315 42.9595 32.9836 43.0813 33.0357C43.203 33.0878 43.3231 33.1308 43.4102 33.1829L43.4703 33.192H43.5314C43.549 33.192 43.5654 33.1919 43.6271 33.218C43.9906 33.2695 44.3467 33.3397 44.6922 33.3567C45.0308 33.3742 45.3677 33.3307 45.7148 33.1659C45.7759 33.1834 45.8104 33.1659 45.8365 33.1314L45.8886 33.0878L45.9407 33.0182C45.9407 33.0011 45.9502 32.9751 45.9502 32.9581C45.9476 32.914 45.938 32.8709 45.8599 32.8364ZM31.5379 44.4807C31.7027 44.4467 31.8674 44.4031 32.0231 44.359C32.1879 44.3165 32.3436 44.2905 32.4999 44.2814C32.6732 44.2378 32.8549 44.2554 33.0282 44.3075C33.21 44.351 33.3832 44.4292 33.574 44.4903C33.6607 44.4728 33.6957 44.351 33.6777 44.2649C33.62 44.1888 33.5461 44.1263 33.4613 44.0821C32.9501 43.5799 32.0662 43.7095 31.4683 43.9264C31.3641 43.9349 31.252 43.9785 31.1393 43.996C31.0351 44.0125 30.9485 44.0045 30.8789 43.9088C30.7401 43.7967 30.7146 43.5974 30.7401 43.3981C30.645 43.2939 30.4887 43.329 30.3851 43.4241C30.2815 43.7531 30.4372 44.0481 30.619 44.2554C30.8884 44.5328 31.2174 44.5424 31.5379 44.4807ZM37.49 48.6401C36.9617 48.8123 36.3898 48.9867 35.7919 49.0117C35.5065 49.0813 35.22 49.0728 34.9256 49.0292C34.6397 48.9867 34.3537 48.917 34.0768 48.8735C33.8663 48.8559 33.6548 48.8559 33.4443 48.8735C33.245 48.891 33.0457 48.9256 32.8464 48.9511C32.4478 49.0032 32.0582 49.0382 31.6336 48.9426C31.5124 48.9426 31.4172 48.8905 31.3131 48.8389C31.2629 48.8066 31.2107 48.7774 31.1568 48.7518C31.1047 48.7342 31.0441 48.7082 30.975 48.7082C30.8624 48.6481 30.7933 48.7693 30.7848 48.8299C30.7502 48.9075 30.7757 48.9691 30.8108 49.0207C30.8284 49.0382 30.8454 49.0643 30.8629 49.0892C30.8799 49.1068 30.8975 49.1243 30.915 49.1599C31.4693 49.6096 32.3277 49.6362 32.9947 49.4714C33.2371 49.3757 33.4885 49.3678 33.7574 49.3853C34.0173 49.4018 34.2857 49.4374 34.5371 49.4374C35.0223 49.5846 35.5161 49.5671 36.0019 49.4895C36.4781 49.4119 36.9633 49.2726 37.422 49.1509C37.5091 49.1169 37.6213 49.0898 37.7085 49.0473C37.7662 49.0262 37.8166 48.9888 37.8535 48.9397C37.8903 48.8905 37.9122 48.8317 37.9163 48.7704C37.8631 48.6226 37.6378 48.4929 37.49 48.6401ZM39.3795 47.1759C39.3274 47.1158 39.2758 47.0542 39.2142 46.9941C39.0924 46.8724 38.9373 46.7688 38.7034 46.7688L38.6513 46.7853C38.452 46.916 38.5381 47.0893 38.5902 47.1754L38.6253 47.2275C38.6338 47.245 38.6338 47.2625 38.6253 47.2886C38.3563 47.4092 38.0534 47.4879 37.7584 47.54C37.3773 47.6085 37.0048 47.54 36.6237 47.4443L36.0518 47.2886C35.8525 47.245 35.6532 47.2014 35.4443 47.1929C35.202 47.2014 35.0027 47.2965 34.8294 47.3826C34.7518 47.4262 34.6646 47.4698 34.578 47.5044C34.5004 47.538 34.4187 47.5614 34.3351 47.574C34.1013 47.4703 33.8589 47.3662 33.59 47.2971C33.321 47.228 33.0266 47.2014 32.7236 47.2631C32.4722 47.2971 32.2299 47.3667 31.996 47.4273C31.7707 47.4884 31.5538 47.549 31.346 47.5665C31.1207 47.5665 30.8953 47.6006 30.679 47.5926C30.5233 47.5926 30.3761 47.5665 30.2368 47.4533C30.2459 47.4273 30.2538 47.3757 30.2458 47.3316C30.2453 47.2971 30.2363 47.2633 30.2196 47.2331C30.2029 47.2029 30.1791 47.1772 30.1502 47.1584C29.9769 47.0808 29.8382 47.1243 29.7255 47.2115C29.6734 47.2455 29.6304 47.2891 29.5868 47.3322L29.5262 47.3933L29.4741 47.4454L29.4401 47.4889C29.4253 47.5309 29.4015 47.5692 29.3705 47.6011C29.3359 47.6447 29.3014 47.6787 29.2669 47.7143C29.1893 47.8004 29.1021 47.9136 29.1451 48.1294C29.2057 48.2251 29.3269 48.3287 29.4832 48.3112L29.5438 48.2851L29.6825 48.1469C29.7204 48.1081 29.7643 48.0758 29.8127 48.0513C29.8818 48.0337 29.9599 48.0513 30.038 48.0948C30.5318 48.3888 31.0255 48.3377 31.4938 48.207C31.7191 48.1469 31.9445 48.0598 32.1693 47.9816C32.3947 47.9131 32.611 47.8519 32.8539 47.8259C33.0792 47.7658 33.287 47.8084 33.4948 47.887C33.7202 47.9646 33.928 48.0853 34.1363 48.1809C34.3526 48.2585 34.5435 48.233 34.7167 48.1645C34.8034 48.1294 34.8815 48.0858 34.9506 48.0428C35.0197 47.9992 35.0893 47.9471 35.1499 47.8955C35.3662 47.7047 35.7473 47.7658 36.0678 47.878C36.5275 48.199 37.2376 48.2591 37.8015 48.1384C38.0183 48.0688 38.2601 48.0167 38.494 47.9652C38.7204 47.9131 38.9458 47.8605 39.1695 47.7743L39.3959 47.904C39.5421 47.9912 39.6898 47.904 39.7425 47.7823L39.751 47.7047C39.6989 47.575 39.6378 47.4278 39.5166 47.3237C39.4751 47.2795 39.423 47.2275 39.3795 47.1759ZM33.557 43.8488C33.6697 43.9009 33.7994 43.9445 33.9296 43.9785C34.0593 44.0125 34.1895 44.0396 34.3367 44.0656C34.6051 44.0396 34.891 43.9785 35.1515 43.8403L35.1945 43.7707V43.6489C35.1945 43.5969 35.177 43.5278 35.0643 43.4587C34.8995 43.4502 34.7263 43.4677 34.5615 43.4677C34.3968 43.4762 34.232 43.4847 34.0678 43.4587C33.6171 43.4151 33.3402 43.1036 33.2185 42.679C33.0282 42.0986 33.0967 41.5613 33.2275 41.0239C33.2881 40.747 33.3572 40.4781 33.4178 40.2012C33.4698 39.9323 33.5134 39.6554 33.5304 39.3088C33.5134 38.9363 33.4528 38.5291 33.4263 38.113C33.4002 37.7059 33.4002 37.2987 33.5134 36.9086C33.4874 36.5876 33.5044 36.2847 33.5219 35.9897C33.5395 35.6953 33.548 35.4093 33.5134 35.1149C33.5385 35.0705 33.5537 35.0212 33.5582 34.9705C33.5627 34.9197 33.5563 34.8685 33.5395 34.8204C33.5304 34.7768 33.5134 34.7338 33.5049 34.6822C33.4874 34.6387 33.4874 34.6041 33.4874 34.5605L33.4613 34.4999C33.4178 34.4654 33.4008 34.4308 33.3832 34.3697L33.3572 34.3261H33.3051C33.2445 34.3261 33.2015 34.3352 33.1664 34.3607L33.1058 34.4128L32.9586 34.4819L33.0542 34.5255L33.0282 34.586C32.9936 35.1664 33.0803 35.7213 33.0452 36.2321C33.0367 36.5961 32.9586 36.9251 32.924 37.2546C32.8719 37.5927 32.8634 37.9307 32.9676 38.2857C32.9851 38.5111 33.0112 38.7364 33.0282 38.9612C33.0542 39.1781 33.0627 39.4034 33.0367 39.6198C32.9931 39.8361 32.9586 40.0704 32.907 40.3043C32.8634 40.5297 32.8113 40.755 32.7247 40.9804C32.6035 41.7686 32.5169 42.6003 32.9676 43.3024C33.0893 43.5714 33.3056 43.7452 33.557 43.8488ZM47.2811 10.3518L47.4108 10.464C48.1219 10.9928 48.8931 11.3739 49.7163 11.755C48.929 11.2461 48.1162 10.7778 47.2811 10.3518ZM37.49 38.2597C37.5511 38.3033 37.6293 38.2597 37.6293 38.1821C37.5681 38.0699 37.5942 37.9743 37.5517 37.8531C37.4996 37.7059 37.3609 37.6102 37.3263 37.4545C37.0574 37.0043 36.9181 36.5106 36.7709 36.0163C36.7109 35.8951 36.6152 35.7909 36.4855 35.7824C36.4445 35.8112 36.4115 35.85 36.3898 35.8951C36.4074 36.2937 36.5115 36.7093 36.6667 37.0819C36.8841 37.4975 37.0574 38.0088 37.49 38.2597ZM35.3768 44.1873C35.4125 44.2115 35.4561 44.2208 35.4985 44.2134C35.5761 44.1783 35.6707 44.1602 35.7924 44.1602H36.1225C36.3994 44.1438 36.6933 44.1438 36.9708 44.1082C37.2572 44.0656 37.5347 43.9864 37.7515 43.8052C38.115 43.6234 38.1241 43.1818 38.0725 42.8177L37.9769 42.6875C37.7776 42.6705 37.6904 42.7741 37.6558 42.9128C37.6361 42.978 37.6216 43.0447 37.6123 43.1122C37.5947 43.1727 37.5862 43.2339 37.5687 43.2769C37.2477 43.7191 36.6253 43.7452 36.0959 43.7095L35.4204 43.8748C35.4039 43.8924 35.3864 43.9009 35.3683 43.9184L35.3077 43.9609C35.2647 44.0045 35.2386 44.0566 35.2992 44.1438L35.3768 44.1873ZM34.1895 45.0962C34.0773 45.1127 34.0943 45.2354 34.0593 45.313C34.3803 45.4948 34.8395 45.6766 35.1775 45.3816C35.2206 45.2955 35.3162 45.2259 35.2902 45.1127C35.2992 45.0351 35.2381 45.0266 35.1775 45.0266C34.9346 45.1919 34.4924 45.1743 34.1895 45.0962ZM36.3298 45.9976C36.2081 45.928 36.0869 45.8504 35.9572 45.7807C35.8266 45.7147 35.686 45.6709 35.5411 45.6511C35.3162 45.5814 35.1339 45.6335 34.9612 45.7111C34.8831 45.7462 34.7964 45.7898 34.7183 45.8328C34.6407 45.8679 34.5711 45.9025 34.493 45.92C34.1204 45.6856 33.7478 45.7292 33.3928 45.8589C33.211 45.9285 33.0378 46.0061 32.8555 46.0933C32.6865 46.1708 32.5127 46.2374 32.3351 46.2926C32.2828 46.3236 32.2225 46.3384 32.1619 46.3351C32.1013 46.3351 32.0316 46.3186 31.9716 46.309C31.8414 46.283 31.6851 46.2665 31.5815 46.4047C31.5469 46.4483 31.5554 46.4919 31.5724 46.5264C31.5724 46.544 31.5815 46.5604 31.633 46.6221C31.9796 46.7693 32.3346 46.7603 32.6817 46.6306C32.7858 46.6045 32.881 46.561 32.9761 46.5184C33.0718 46.4749 33.1579 46.4313 33.2445 46.3877C33.4178 46.3101 33.5825 46.2415 33.7733 46.2495L33.8169 46.241C33.8775 46.2314 33.9386 46.2495 34.0072 46.2835L34.1199 46.3271C34.1599 46.3487 34.2046 46.3604 34.2501 46.3611C34.2761 46.3611 34.3107 46.3707 34.3452 46.3787C34.3798 46.3872 34.4228 46.4047 34.4579 46.4222C34.536 46.4483 34.6311 46.4743 34.7438 46.4398C35.0989 46.1448 35.4369 46.2144 35.7919 46.3526C35.9748 46.4222 36.1565 46.5084 36.3473 46.578C36.5371 46.6391 36.7364 46.6816 36.9537 46.6651L37.0138 46.6301L37.0914 46.6216C37.1174 46.6216 37.1435 46.6216 37.1786 46.612C37.2126 46.6035 37.2386 46.587 37.2647 46.5344C37.2822 46.4483 37.2562 46.3011 37.1265 46.249C36.8145 46.2745 36.5727 46.1533 36.3298 45.9976ZM68.2748 29.5263C68.2748 29.0671 68.1191 28.5988 68.059 28.1402C67.9283 27.9669 67.9718 27.733 67.8762 27.5683C67.8422 27.1266 67.5387 26.8056 67.4515 26.39C67.1922 25.74 66.8796 25.1771 66.5161 24.5441C66.481 24.0679 66.4289 23.6603 66.3072 23.2271C66.2296 23.1495 66.2126 23.0884 66.1515 23.0103C66.135 22.9327 66.0739 22.8636 66.0569 22.7679C66.0038 22.7248 65.9958 22.6382 65.9437 22.5776C65.7529 22.1875 65.5015 21.7368 65.1805 21.4509C64.869 20.922 64.3747 20.4634 63.9597 20.0042C63.864 19.9266 63.6907 19.8394 63.6386 19.7352C63.1704 19.25 62.581 18.8344 62.0266 18.4097C61.8895 18.3533 61.7611 18.2774 61.6456 18.1844C61.333 17.9765 60.97 17.7772 60.6315 17.5955C59.9039 17.2925 59.2459 16.9545 58.4827 16.6771C58.05 16.5213 57.6254 16.339 57.1572 16.2609C56.75 16.2264 56.421 15.984 56.066 15.8538C55.737 15.7581 55.5106 15.4897 55.2427 15.3335C54.9738 15.0821 54.6533 14.9258 54.4019 14.701C54.1686 14.5453 53.9257 14.4241 53.7519 14.2243C52.9722 13.6178 52.3663 12.6213 51.4474 12.136C50.8755 11.9713 50.2691 11.6768 49.6972 11.755C48.8915 11.3739 48.1203 10.9923 47.4092 10.464C47.1758 10.2477 46.9329 10.0654 46.673 9.87509C45.6765 8.86155 44.3946 8.15095 42.9298 8.13394C42.6965 8.16796 42.4615 8.26363 42.2362 8.21154C41.6043 7.12837 40.3042 7.0157 39.2301 6.63462C38.6843 6.42628 38.3893 5.89798 38.1639 5.39519C38.1475 5.24797 38.0518 5.1353 38.0422 4.96203C37.9912 4.84936 37.878 4.77123 37.7744 4.71967C37.6176 4.65005 37.4533 4.74518 37.3407 4.84085C37.2285 5.17037 37.2721 5.53391 37.1509 5.83739C37.0212 6.06274 36.8905 6.32264 36.7688 6.53045C36.5174 6.91152 36.0587 7.215 35.6947 7.27559C35.3396 7.07628 34.9415 7.0157 34.5514 6.92906C34.4042 6.90302 34.2049 6.92906 34.0662 6.89452C33.1999 6.92906 32.307 7.08479 31.6314 7.4749C31.0596 7.77838 30.5398 8.04678 30.003 8.37577C29.5523 8.80893 28.9719 8.99974 28.5212 9.40685C28.1922 9.59766 27.9753 9.77092 27.6549 9.94419C26.8752 10.4985 25.8441 10.9142 24.8475 10.802C24.4229 10.8626 24.0503 10.5161 23.7213 10.3343C23.6607 10.2907 23.6086 10.2216 23.5656 10.1871C23.2451 10.0314 23.2106 9.65028 23.0198 9.41589C22.8635 9.33776 22.9592 9.12995 22.829 9.02578C22.7622 8.99582 22.6898 8.98033 22.6166 8.98033C22.5434 8.98033 22.4711 8.99582 22.4043 9.02578C21.85 9.50252 21.269 9.8836 21.0006 10.5336C20.7583 11.114 20.4633 11.7119 20.5675 12.431C20.3336 12.6303 20.0131 12.7425 19.7617 12.9423C19.5885 13.098 19.3201 13.2453 19.1293 13.4446C18.9039 13.696 18.618 13.9558 18.4623 14.2588C18.4883 14.3364 18.4017 14.3364 18.3756 14.363C17.7952 14.3805 17.1362 14.389 16.4952 14.4581C15.6204 14.5708 14.8402 14.9604 14.035 15.2378C13.2547 15.5758 12.4841 15.9484 11.782 16.3991C11.444 16.5548 11.132 16.8323 10.8461 17.0486C10.465 17.4041 9.99674 17.6725 9.65924 18.0797C9.40785 18.322 9.16549 18.5649 9.00073 18.8854C9.08736 19.1192 8.80993 19.3531 9.04378 19.5349C8.88805 19.7863 8.54153 19.9941 8.43735 20.3066C7.35418 20.7568 6.45331 21.4583 5.5349 22.1779C4.67708 22.9752 3.84531 23.7373 3.25589 24.7514C3.12567 24.8205 3.1953 24.9768 3.06508 25.0113C3.03957 25.0894 2.96144 25.1325 2.91786 25.2021C2.72759 25.6528 2.45866 26.0514 2.31144 26.5276C2.19876 26.6664 2.18973 26.8487 2.12063 27.0039C2.09459 27.082 2.06004 27.1771 2.04304 27.2637L1.97394 27.6363C1.9394 27.7229 1.99998 27.8356 1.89581 27.8877C1.85223 27.9914 1.78314 28.1391 1.86127 28.2427C1.80918 28.5196 1.93886 28.7105 2.04304 28.9098C2.03453 29.0921 1.85223 29.2132 1.78314 29.369C1.66143 29.5162 1.55779 29.707 1.43661 29.8542C1.35848 30.1051 1.59233 30.3134 1.73956 30.4691C2.12063 30.5909 2.51074 30.4261 2.87481 30.331C3.37707 30.2183 3.79322 29.9408 4.26943 29.7591C4.41666 30.3134 4.55537 30.9374 5.06666 31.319C5.33506 31.4747 5.6816 31.5183 5.99358 31.5093C6.31406 31.6219 6.53941 31.3881 6.7823 31.3015C6.81685 31.3015 6.83439 31.3275 6.82589 31.362C6.75626 31.9945 7.00765 32.5664 7.34568 33.0431C7.73526 33.2945 8.03874 33.5544 8.45436 33.7883C8.41981 34.1088 8.49794 34.4122 8.55003 34.6812C8.65367 34.8369 8.65367 35.0622 8.76634 35.218C9.13892 36.0067 9.88459 36.4484 10.6037 36.856C11.1495 37.0468 11.6087 37.1159 12.2067 36.9426C12.2412 36.9081 12.3193 36.8821 12.3624 36.8991C12.4751 37.3152 12.6223 37.7048 12.8131 38.0859C12.9258 38.2161 13.0124 38.3543 13.09 38.467C13.1766 38.7183 13.3935 38.8916 13.5407 39.0994C13.766 39.4114 14.1471 39.5236 14.347 39.8706C14.5117 40.3559 14.9188 40.789 15.4126 40.9538C15.4647 41.0489 15.6379 41.0059 15.6119 41.1441C15.4471 41.3258 15.4471 41.5948 15.3175 41.8111C15.3345 42.2357 15.2909 42.7816 15.4902 43.1711C15.4817 43.3184 15.5859 43.388 15.6119 43.5347C15.6209 43.5442 15.6464 43.5783 15.681 43.5783C15.7501 43.9168 16.036 44.0725 16.2529 44.2719C16.3395 44.6184 16.5994 44.8873 16.8593 45.1212C17.0326 45.2344 17.2579 45.3029 17.4572 45.3805C17.4572 45.4842 17.4572 45.5798 17.4918 45.667C17.5524 45.962 17.6299 46.2474 17.7256 46.5243C17.7602 46.7411 17.8989 46.949 18.0116 47.1047C18.0807 47.3136 18.2544 47.4693 18.3326 47.659C18.2109 47.8498 18.1242 48.0752 18.0291 48.2745C17.8558 48.8384 17.8383 49.3231 17.9855 49.895C18.0201 49.9726 18.0201 50.0682 18.0982 50.1379C18.3235 50.7879 18.93 51.2726 19.5454 51.567C19.7012 51.7828 19.7878 52.0082 19.8053 52.2771C19.9005 52.7368 19.7447 53.178 19.6666 53.6202C19.6491 53.8535 19.6145 54.1485 19.5454 54.3653C19.5364 54.4174 19.5539 54.461 19.5194 54.495C19.5109 54.8415 19.4328 55.119 19.3897 55.448C19.3807 55.5612 19.3982 55.6133 19.3552 55.6823C19.3552 56.1495 19.2425 56.6954 19.4072 57.1376C19.3902 57.6138 19.598 58.0469 19.6937 58.4891C20.0317 59.0094 20.3171 59.5978 20.8024 60.0921C20.8975 60.0921 20.9236 60.1957 20.9927 60.2739C21.0102 60.3089 21.0793 60.3089 21.0793 60.361C21.6081 60.7596 22.1364 61.1487 22.7689 61.3315C23.1069 61.4697 23.4795 61.4957 23.8175 61.5733C24.4324 61.6084 25.1861 61.6509 25.767 61.4872C27.5257 61.1147 28.7906 59.8667 30.3846 59.1306C30.9049 58.9653 31.3986 58.6969 31.9966 58.7224C32.1263 58.8357 32.1438 59.0775 32.2825 59.1386C32.4558 59.5197 32.8283 59.7705 33.2009 59.9183C33.4869 60.04 33.8504 60.04 34.206 60.074C34.6306 60.0836 35.0898 60.0055 35.4539 59.779C35.6792 59.7365 35.7133 59.5197 35.9126 59.4075C36.2947 59.6929 36.8055 59.7541 37.2992 59.7541C37.507 59.8487 37.7579 59.8662 38.0008 59.8402C38.494 59.6749 38.8666 59.3119 39.119 58.8612C39.2136 58.6959 39.3088 58.8872 39.3869 58.9388C39.4565 58.9988 39.5697 59.0164 39.5947 59.0945C40.0369 59.5016 40.4531 59.8917 40.9558 60.2382L41.6059 60.6193C41.8748 60.6629 42.1001 60.8447 42.351 60.9223C42.6885 61.0009 42.9654 61.2172 43.356 61.2172C43.39 61.2172 43.4257 61.2784 43.4597 61.2268C43.6675 61.2693 43.8934 61.2954 44.1012 61.373C44.4126 61.3565 44.7251 61.4506 45.0366 61.4341C45.1923 61.4256 45.3316 61.4081 45.4788 61.4506C45.8338 61.4256 46.1724 61.3299 46.5354 61.3044C46.8219 61.2784 47.0897 61.1051 47.3666 61.0264C47.9996 60.741 48.6236 60.3249 49.0483 59.7705C49.3512 59.6669 49.3252 59.3119 49.533 59.1386C49.6286 58.7921 49.7934 58.437 50.0012 58.1336C49.9661 58.0985 50.0097 58.0639 50.0352 58.056C50.0267 57.8567 50.1399 57.7094 50.192 57.5356C50.2181 57.2492 50.3562 56.9978 50.3818 56.7124C50.5646 55.9927 50.6161 55.0919 50.6071 54.4339C50.7108 54.0873 50.6332 53.862 50.6767 53.507C50.6427 53.3241 50.6427 53.1684 50.6167 52.9776C50.5816 52.7618 50.6332 52.5625 50.6852 52.3536C50.7628 52.1458 50.8681 51.9726 50.9457 51.7653C50.9457 51.6436 51.0674 51.5745 51.0674 51.4443C51.3352 51.0797 51.492 50.6555 51.7599 50.326C51.7859 50.1788 51.8731 50.0667 51.8992 49.9274C52.0113 49.7021 52.107 49.4863 52.142 49.2258C52.1761 49.1482 52.1325 49.0265 52.1846 48.9404C52.1681 48.5939 52.2106 48.1868 52.142 47.8482C52.1325 47.4847 51.9512 47.2078 51.9332 46.8613C52.1761 46.5923 52.2457 46.2458 52.3669 45.9168C52.3754 45.6303 52.479 45.3625 52.4354 45.076C52.5311 44.9027 52.6783 44.8506 52.7394 44.6513C52.8516 44.1842 52.9648 43.6117 52.834 43.109C52.8516 42.9187 52.7134 42.7709 52.7394 42.5892C52.9116 42.5982 53.0849 42.6583 53.2762 42.6843C53.7445 42.6673 54.2292 42.806 54.6889 42.6322C54.8967 42.4675 55.1216 42.7018 55.373 42.6843C55.6243 42.6152 55.8056 42.806 56.083 42.7364C56.2302 42.6933 56.2223 42.5371 56.2563 42.3989C55.8927 42.2081 55.8577 41.8446 55.6419 41.5496C55.399 41.0819 55.7801 40.5972 55.8316 40.1114C55.8316 40.0508 55.9092 40.0247 55.8927 39.9466C56.1006 39.6001 56.1957 39.193 56.3514 38.8379C56.369 38.7598 56.4551 38.6817 56.4471 38.6041C56.6028 38.3702 56.6985 38.1013 56.7936 37.8329C56.9058 37.573 56.9493 37.244 57.0269 36.9751C57.1566 36.5419 57.1401 36.1518 57.1045 35.6756C57.096 35.277 56.9664 34.9044 56.8276 34.5669C56.7676 34.5143 56.75 34.4197 56.732 34.3586C56.7851 34.4192 56.9052 34.298 56.9924 34.3586C57.6504 34.341 58.1106 33.8388 58.4822 33.3275C58.4657 33.2759 58.5172 33.2584 58.5433 33.2238C58.5693 33.0591 58.699 32.9204 58.7341 32.7386C58.6384 32.4271 59.011 32.3315 59.1577 32.1407C59.3921 31.6124 59.5914 31.0405 59.5138 30.3905C59.5563 30.2518 59.7035 30.2433 59.8087 30.1306C59.8513 30.1045 59.9294 30.0785 59.9809 30.1221C60.0421 30.0875 60.1282 30.1651 60.2063 30.1912C60.5528 30.5032 60.8563 31.075 61.4282 30.8667C61.7928 30.8927 62.1393 30.6243 62.3647 30.3559C62.3732 30.2087 62.5544 30.1742 62.5544 30.0264C62.5719 29.9313 62.5804 29.8101 62.6761 29.7495C62.7718 29.8361 62.885 29.9749 62.9626 30.0875C63.3601 30.3995 63.7423 30.8848 64.1845 31.0495C64.3742 31.2053 64.6777 31.1271 64.903 31.2313C65.1374 31.1537 65.3713 31.1537 65.5966 31.0756C65.7359 31.2488 65.9612 31.3961 66.1946 31.4306C66.3242 31.4912 66.4975 31.5172 66.6192 31.5693C66.8621 31.5778 67.0699 31.4742 67.3208 31.4566C67.4244 31.3264 67.6237 31.3264 67.7534 31.2403C67.8066 31.1712 67.8491 31.0495 67.9267 31.032C68.0223 31.1362 68.1611 31.2488 68.3349 31.2488C68.4385 31.3525 68.5166 31.1967 68.5942 31.1712C68.5262 30.618 68.2668 30.1242 68.2748 29.5263ZM55.6855 16.5729C56.2313 16.7897 57.4192 16.5989 58.4418 17.1272C59.3687 17.6034 60.3041 17.8203 61.1624 18.4528C61.6557 18.8168 62.1754 19.1809 62.6782 19.5359C63.0593 19.9345 63.6227 20.4458 64.0649 20.7578C64.5156 21.1655 64.7489 21.7283 65.1736 22.1184C65.2512 22.3868 65.5201 22.5516 65.5461 22.8381C65.6758 22.9071 65.6158 23.0634 65.7369 23.141C65.8751 23.3743 65.9703 23.6348 65.9703 23.9122C64.2201 22.4564 62.8345 20.6366 60.6937 19.6752C57.0976 17.4828 49.6031 18.6181 47.8173 15.9495V15.8368C49.6382 16.989 51.3613 16.625 53.4415 16.5304C53.8226 16.5564 54.1691 16.591 54.5066 16.5304C54.7761 16.4172 55.408 16.4692 55.6855 16.5729ZM54.8973 15.9144C53.8572 16.0531 47.8094 16.5038 47.9226 14.7791C49.3082 14.4066 50.7214 14.1121 52.1681 14.2678C52.6533 14.1557 54.6464 15.5073 54.8973 15.9144ZM52.3679 13.5753C51.8917 13.7486 51.3103 13.6013 50.8075 13.6529C50.0878 13.722 49.3783 13.9388 48.6682 13.9824C48.4774 14 47.221 14.2944 47.1695 14.381C47.1344 14.4416 47.3512 14.9699 47.3677 15.1171C47.0042 15.5593 45.7222 16.0876 45.1413 16.0186C44.4397 16.0791 43.8073 15.663 43.1142 15.6975C41.685 15.7672 40.7236 16.5554 39.4842 16.7892C39.9784 16.0356 40.9053 15.2383 41.5989 14.6664C44.57 12.2232 44.8304 14.3024 47.9236 12.9598C49.7424 12.1626 50.9292 12.0154 52.3679 13.5753ZM58.1904 24.2497C58.0686 24.3624 57.8778 24.3539 57.7482 24.4665C57.5749 23.9552 57.2278 24.0073 56.9424 23.6783C57.3496 23.6523 58.5194 23.808 58.7787 24.1375C58.5714 24.1285 58.3976 24.2582 58.1904 24.2497ZM60.8839 26.9358C59.2374 26.9358 58.623 28.3825 57.2714 28.8763C57.2363 27.8627 56.3785 27.0219 57.3054 25.6273C57.4883 25.3674 57.7652 25.1506 58.0506 25.0033C59.7152 24.1195 60.4168 25.6273 60.8839 26.9358ZM55.079 22.846C55.0705 22.846 54.9754 22.8115 54.9754 22.8375C54.5247 22.6552 53.3634 22.6643 52.8962 22.7939C50.2096 23.5221 47.8439 21.7804 46.1548 19.8915C45.9215 19.6231 45.6345 19.5365 45.4097 19.3111C46.2766 19.0773 47.1514 18.6871 48.0608 18.6356C49.0148 18.5835 50.0363 18.9561 50.9807 19.0858C51.9597 19.216 52.9127 19.1639 53.8928 19.233C54.6464 19.2851 55.8508 19.5535 56.4487 20.0127C56.7256 20.2295 57.1327 20.4288 57.3676 20.6887C57.9044 21.2866 58.277 21.9537 58.9786 22.4044C57.999 23.4349 56.3094 23.1495 55.079 22.846ZM47.4288 22.0228C47.7413 22.3002 48.1224 22.4644 48.4689 22.7073C49.3432 23.175 52.0294 23.9032 52.9047 23.3738C52.9047 23.4089 52.9568 23.3568 52.9659 23.3398C54.4211 22.9066 56.4402 23.5045 57.1587 24.8816C56.4662 25.5486 55.8332 28.5468 56.8298 29.058C55.2449 30.2624 54.7681 27.1521 52.6618 27.4205C52.394 27.0825 51.2146 26.1381 50.7735 26.2683C50.5481 26.3374 50.3834 26.6579 50.167 26.762C49.6552 27.0134 47.9911 26.8832 47.55 26.5021C47.3847 26.3634 47.4628 26.0169 47.4368 25.8176C47.3592 25.2887 46.3281 22.2045 46.0687 21.7283C45.6606 20.9832 45.1243 20.4979 44.6561 19.8049C45.5745 20.0127 46.6916 21.3557 47.4288 22.0228ZM48.0443 28.703C47.6797 28.6339 47.4889 28.2874 47.1774 28.1396C47.195 27.8882 47.3592 27.4205 47.4464 27.1776C48.495 27.698 50.167 27.7665 51.0424 26.8917C51.2321 26.9608 52.0474 27.5938 52.1851 27.758C52.1766 27.9138 52.3584 27.9919 52.394 28.1391C52.5061 28.2257 52.5237 28.3905 52.6358 28.4771C52.7145 28.711 52.7575 28.9709 52.7575 29.2223L52.6879 29.2999C52.3328 28.9103 52.1171 28.5032 51.6828 28.1476C51.5096 28.0089 51.3103 27.9483 51.2242 27.7144L50.9473 27.6193C50.7219 27.7144 50.7304 27.9743 50.6007 28.1391C50.7639 28.8763 48.555 29.1367 48.0443 28.703ZM48.0443 47.9986C48.1402 48.0077 48.2359 47.9799 48.3122 47.921C48.7368 47.5224 48.9276 46.9846 49.3183 46.6035C49.4564 46.7167 49.2651 46.7943 49.2486 46.916C49.1875 47.1754 49.0153 47.3747 48.9276 47.6176C48.7804 47.9205 48.5375 48.1894 48.4594 48.5445C47.9832 49.186 47.4107 49.8179 46.9521 50.4068C46.7613 50.6412 46.5535 50.883 46.3717 51.1355C46.3111 51.2042 46.2588 51.2798 46.216 51.3608C46.0943 51.499 45.9731 51.6026 45.8694 51.7499C45.8344 51.8796 45.9035 51.9587 45.9731 52.0528C46.0767 52.0879 46.1899 52.0964 46.3196 52.0704C47.0212 51.2731 47.6451 50.3898 48.3212 49.5665C48.5806 49.4193 48.6762 49.0892 48.8495 48.8814C49.0392 48.5439 49.3517 48.2314 49.5075 47.8328C49.5851 47.8589 49.5771 47.9721 49.5686 48.0497C49.5154 48.2665 49.3858 48.3611 49.3082 48.5519C49.1089 48.8984 48.8399 49.237 48.6326 49.5835C48.3036 50.0682 47.8875 50.4057 47.6196 50.908C47.2471 51.3677 46.9441 51.8269 46.562 52.1814C46.2681 52.494 45.9991 52.8926 45.6871 53.144C45.22 53.6547 44.7166 54.2266 44.1974 54.6252C44.0321 54.807 43.8073 54.9282 43.6515 55.0935C43.3826 55.4485 42.9665 55.6218 42.6635 55.9507C42.4477 56.0283 42.2745 55.8471 42.0656 55.795C41.9449 55.6914 41.7106 55.6829 41.702 55.474C42.0831 55.179 42.5078 54.85 42.8628 54.5295C43.1753 54.1745 43.6165 53.7855 43.929 53.3869C43.9375 53.2736 44.0762 53.17 44.0066 53.0403C43.937 52.9532 43.8508 52.8671 43.7461 52.9447C43.3135 53.3257 42.8463 53.8891 42.4041 54.2702C42.2484 54.3658 42.1272 54.5131 41.9795 54.5827C41.971 54.6688 41.8498 54.6863 41.7977 54.7289C41.5984 54.9282 41.3555 55.0935 41.1302 55.2582C40.8968 55.3358 40.6098 55.1796 40.4026 55.0929C40.2197 55.0408 39.9428 54.9973 39.8482 54.85C40.385 54.529 40.7661 54.0964 41.2434 53.7329C41.8317 53.3247 42.2303 52.6406 42.8028 52.216C43.8078 51.1844 44.5694 50.1969 45.4187 49.0871C46.0262 48.1873 46.5721 47.3981 47.0908 46.4536C47.1344 46.3415 47.178 46.2022 47.2816 46.0986C47.3337 45.9514 47.4113 45.8217 47.4469 45.6479C47.559 45.4571 47.5941 45.2493 47.7323 45.0585C47.7924 44.9638 47.8099 44.8251 47.9491 44.7906C48.0613 44.8682 48.0788 44.9548 48.191 45.0585C48.4339 45.3625 48.7464 45.6139 48.9361 45.9514C48.9021 46.1507 48.7464 46.3239 48.6592 46.5153C48.3888 46.9428 48.1373 47.3821 47.9056 47.8318C47.9396 47.895 47.9747 47.9646 48.0443 47.9986ZM47.905 54.5056C47.9226 55.1471 47.7493 55.7791 47.6281 56.4126C47.5901 56.4453 47.5608 56.4868 47.5427 56.5336C47.5247 56.5803 47.5184 56.6307 47.5245 56.6805C47.5149 56.7501 47.4634 56.8112 47.4373 56.8798C47.3337 57.1748 47.1344 57.4517 46.8229 57.5388C46.3286 57.5909 45.7568 57.5909 45.3321 57.3996C45.1153 57.3395 44.942 57.2178 44.7602 57.1838C44.3095 56.9234 43.7036 56.6119 43.2875 56.3345C43.6085 56.0305 43.929 55.8322 44.2064 55.5277C45.0472 54.8872 45.7573 54.0464 46.4764 53.3188C46.9526 52.7469 47.4469 52.2527 47.888 51.6468C48.0873 51.3614 48.3823 51.0573 48.538 50.7624C48.5216 50.9532 48.3919 51.0053 48.3823 51.1961C48.2787 51.465 48.1745 51.7419 48.1134 52.0193C48.0613 52.4004 47.9752 52.833 47.9752 53.2327C47.8875 53.6398 47.9747 54.082 47.905 54.5056ZM25.5337 54.8782C25.6639 55.1126 25.8106 55.3119 26.045 55.5022C26.4606 55.9104 26.8768 56.3345 27.3099 56.6805C27.3099 56.7761 27.1887 56.8277 27.1106 56.8633C26.8853 56.8633 26.7035 56.6805 26.5127 56.5853C26.1922 56.2563 25.8111 56.1782 25.5597 55.7977C25.395 55.6159 25.2302 55.4591 25.0745 55.3215C25.0745 55.2354 25.0399 55.2779 24.9964 55.2093C24.8842 55.035 24.6934 54.9053 24.5286 54.732C24.3729 54.5763 24.2337 54.351 24.0609 54.1952C24.07 54.1176 23.9743 54.0916 23.9658 54.022C23.7755 53.7706 23.5672 53.6409 23.42 53.372C23.2207 53.1812 23.0989 52.9133 22.9172 52.7044C22.787 52.4015 22.5531 52.1161 22.4059 51.8211C22.3713 51.7079 22.3017 51.6303 22.2847 51.5181C22.1811 51.4485 22.2156 51.3093 22.1114 51.2317C22.0594 50.9463 21.8255 50.7209 21.7564 50.4084C21.6545 50.1781 21.5789 49.9371 21.5311 49.6898C21.462 49.4294 21.3318 49.1259 21.2712 48.9186C21.3408 48.7533 21.462 48.6157 21.5486 48.4764H21.6352C21.7564 48.9612 22.0248 49.3598 22.1375 49.8195C22.3804 50.3303 22.5967 50.8501 22.8391 51.3443C22.9778 51.3879 23.0299 51.6473 23.2116 51.5697C23.3243 51.5357 23.3764 51.4225 23.4109 51.3093C23.3764 51.111 23.3158 50.9202 23.2207 50.7634C23.1861 50.5301 23.0389 50.3308 22.9432 50.123C22.9432 50.0013 22.8045 49.9758 22.822 49.8541C22.7875 49.6983 22.6748 49.533 22.6488 49.3518C22.5361 49.0829 22.4149 48.7363 22.2937 48.4685C22.2677 48.2431 22.1811 48.0438 22.155 47.8185C22.4755 47.5495 22.8045 47.2205 23.1075 46.9691C23.2026 47.0988 23.168 47.2902 23.2983 47.4103C23.5061 48.3808 24.0519 49.1955 24.4505 50.0709C25.1702 51.1711 25.9323 52.3233 26.9198 53.2859C27.4656 53.9088 28.0545 54.5067 28.7221 55.0089C28.9735 55.2093 29.2764 55.3991 29.5103 55.5904C29.5193 55.6244 29.5103 55.668 29.4757 55.668C29.1813 55.8152 28.8693 55.997 28.5664 56.1442C28.5318 56.1442 28.4882 56.1527 28.4967 56.1878C28.4101 56.1442 28.4191 56.3084 28.332 56.2654C28.2283 56.343 28.0806 56.2654 27.9594 56.2133C27.5698 55.9704 27.3269 55.7015 26.9458 55.3725C26.8233 55.2341 26.6765 55.1194 26.5127 55.0339C26.3915 54.9042 26.2267 54.8181 26.1141 54.7225C25.9583 54.6704 25.8106 54.6188 25.6464 54.6268C25.5597 54.6879 25.5076 54.774 25.5337 54.8782ZM22.1545 53.9253C22.1455 53.5266 22.0673 53.1976 22.1109 52.7815L22.1545 52.7214C22.6052 53.3279 23.0123 53.9773 23.5667 54.5753C23.818 54.8878 24.087 55.2428 24.4245 55.5022C24.8922 56.048 25.43 56.6204 26.0795 57.019C26.1837 57.1312 26.3224 57.1923 26.4176 57.2704C26.2618 57.4873 26.0019 57.5654 25.776 57.6515C25.6985 57.7551 25.5507 57.7822 25.4386 57.8333C24.9358 58.0161 24.5547 58.3015 24.0434 58.4312L23.9132 58.5269C23.5321 58.6826 23.0293 58.7001 22.6743 58.4928C22.5707 58.4578 22.5786 58.3632 22.484 58.3536C22.4234 58.3015 22.3623 58.2415 22.2937 58.1894C21.9988 57.5739 22.0684 56.8803 22.0769 56.1442C22.146 55.4586 22.0418 54.6188 22.1545 53.9253ZM20.0833 48.7347C20.1439 48.519 20.222 48.3197 20.2481 48.1028C20.4128 47.7818 20.4644 47.54 20.6988 47.2455C20.7214 47.1912 20.7572 47.1434 20.8029 47.1063C21.3573 46.3351 21.9988 45.6946 22.8391 45.1743L22.9172 45.2179V45.7547C22.9002 45.8503 22.8711 45.9434 22.8305 46.0316V46.0927C22.787 46.1267 22.7439 46.1788 22.7529 46.2485C22.1986 46.9761 21.3062 47.4268 20.821 48.2415C20.6562 48.4058 20.5436 48.6486 20.4915 48.882C20.3878 48.9691 20.4654 49.1509 20.3618 49.2205C20.3533 49.2981 20.3357 49.3587 20.3357 49.4634C20.2667 49.4895 20.3012 49.532 20.2491 49.5671C19.9536 49.4634 20.1444 49.0297 20.0833 48.7347ZM29.1637 54.4631C28.3755 53.8476 27.717 53.094 27.024 52.3924C26.3049 51.4655 25.5943 50.6508 25.0399 49.6542C24.7189 48.9442 24.3899 48.4244 24.13 47.7143C24.0609 47.4454 23.9653 47.1764 23.8531 46.9171C23.7059 46.4834 23.5066 46.0162 23.6629 45.5219C23.6714 45.3141 23.6629 45.1137 23.6278 44.924C23.6884 44.7943 23.5326 44.7332 23.5672 44.569L23.6278 44.621L23.6368 44.6115C23.6714 44.6466 23.6458 44.7247 23.6804 44.7943C23.7094 44.8189 23.733 44.8494 23.7495 44.8838C23.766 44.9181 23.775 44.9555 23.7761 44.9936C23.9839 45.6341 24.4346 46.1719 24.6945 46.8039C24.9629 47.3497 25.2924 47.8344 25.6474 48.3207C25.7691 48.4589 25.8637 48.6322 26.0025 48.7533C26.2018 48.7794 26.2453 49.0127 26.392 49.118C27.1893 49.9928 28.1337 50.5391 29.0351 51.2492C29.3726 51.6138 29.8148 51.8647 30.0917 52.2458C30.5164 52.5923 30.8199 53.0169 31.2791 53.3284C32.1278 54.2293 33.4799 53.9699 34.6492 54.056C35.6367 54.0135 36.5817 53.8306 37.4305 53.4496C37.8116 53.432 38.0805 53.2067 38.4095 53.0595C38.7305 52.8001 39.0074 52.5227 39.2328 52.1761L39.3284 52.1421C39.7355 51.8036 40.1081 51.3624 40.4722 51.0063C40.9503 50.6019 41.4183 50.1858 41.8758 49.7584C42.2909 49.533 42.5859 49.1265 42.9064 48.8054C43.4692 48.3468 43.8769 47.6617 44.3451 47.0988C44.5444 46.7778 44.8038 46.4573 44.9691 46.1023C45.1333 45.869 45.1849 45.5394 45.4187 45.4183C45.5319 45.4868 45.4623 45.6436 45.5755 45.7297C45.6531 45.8254 45.6531 45.9987 45.7833 46.0683C45.8445 46.224 45.8705 46.3973 45.9741 46.527C46.0002 46.7438 46.2691 46.9777 46.0002 47.1424C45.5755 47.8876 45.0201 48.5365 44.545 49.2476C44.224 49.6548 43.8859 50.0108 43.5484 50.4259C43.0157 51.074 42.4362 51.6823 41.8147 52.2458C41.2944 52.9473 40.5764 53.4416 39.9173 54.022C39.7095 54.1692 39.5718 54.3249 39.3109 54.4291C39.1031 54.5423 38.9208 54.7501 38.6529 54.7852C37.7685 54.8538 36.8506 55.0706 36.0619 55.5388C35.793 55.4777 35.5937 55.3735 35.3343 55.3045C34.8836 55.2099 34.4159 55.2008 34.0433 55.4177C33.8525 55.4177 33.7313 55.2269 33.5671 55.1663C33.0468 54.967 32.4669 54.8538 31.9291 54.967C31.5395 55.0095 31.1148 55.0791 30.7423 55.2099C30.5084 55.322 30.3266 55.0791 30.1013 55.0706C29.7532 54.8957 29.4933 54.6624 29.1637 54.4631ZM47.2991 44.7156C47.247 44.6806 47.2896 44.7321 47.2556 44.7582C47.1859 44.8799 47.1083 45.0011 47.0823 45.1568C46.9786 45.3657 46.8925 45.565 46.7873 45.7547C46.7613 45.8844 46.6231 45.9636 46.562 46.0933C46.4147 45.9636 46.2681 45.8328 46.2409 45.6511C46.1426 45.4401 46.0785 45.2147 46.0512 44.9835C45.904 44.7321 46.1033 44.4467 45.9816 44.1778C46.0948 43.8828 46.1905 43.5799 46.3462 43.2854C46.4062 43.1297 46.4408 42.9389 46.562 42.8262L46.5715 42.8783C46.6316 42.8953 46.6316 42.9819 46.6837 43.034C46.8569 43.4672 47.178 43.8488 47.4373 44.2378C47.4368 44.4111 47.3156 44.5424 47.2991 44.7156ZM46.7528 38.13C46.7267 38.6934 46.5875 39.3428 46.5099 39.9413C46.4323 40.3048 46.3627 40.6429 46.2505 41.0069C46.1809 41.5092 45.9736 41.9689 45.8859 42.4712L45.6866 43.2424C45.617 43.3896 45.5394 43.5543 45.4969 43.7191C45.3837 43.9349 45.2625 44.2214 45.1323 44.4292C45.1062 44.5248 45.0462 44.6024 45.0026 44.6806C44.8033 45.0452 44.4647 45.3742 44.3706 45.7903C44.3356 45.8589 44.275 45.911 44.2659 45.9801C44.1883 46.0321 44.1623 46.1097 44.1017 46.1879C44.0842 46.2665 43.9981 46.3611 43.9545 46.4222C43.3826 47.1674 42.9239 47.921 42.1783 48.519C42.013 48.7268 41.7972 48.9176 41.6324 49.0898C41.5288 49.1605 41.4507 49.2205 41.3731 49.2466C40.9133 49.7228 40.4105 50.0698 39.9168 50.5381C39.2668 51.0573 38.6263 51.7424 37.9769 52.2968C37.5347 52.6778 37.0064 52.9548 36.3999 53.0589C35.1605 53.4411 33.852 53.3629 32.587 53.2933C31.9982 53.2157 31.6081 52.799 31.2094 52.4185C30.9671 52.132 30.5945 51.8381 30.3516 51.4995C30.0051 51.136 29.4763 50.7895 29.1303 50.4334C28.9833 50.3496 28.8415 50.2572 28.7056 50.1565C28.5408 49.9747 28.3415 49.8796 28.1513 49.7238C27.4582 49.2216 26.8863 48.6672 26.3139 48.0172C26.1061 47.9476 26.0716 47.7403 25.9243 47.6011C25.8637 47.4278 25.699 47.3322 25.6559 47.1249C25.5783 46.9691 25.4396 46.7863 25.3615 46.6045C25.353 46.5184 25.2839 46.4828 25.2488 46.3967C25.041 45.9981 24.8242 45.5299 24.5903 45.1137C24.4255 44.8283 24.391 44.4993 24.2347 44.2044C24.1396 43.9354 23.9924 43.684 23.9143 43.4162C23.7931 43.1563 23.6804 42.8873 23.5938 42.6189C23.2823 41.4927 22.9007 40.3314 22.788 39.1186C22.7274 39.0665 22.7971 38.9453 22.7189 38.8757C22.6498 38.2953 22.5802 37.8451 22.5632 37.2902C22.4766 36.7008 22.5026 35.8951 22.5372 35.3147C22.9879 35.1499 23.4471 34.9421 23.7766 34.535C23.9669 34.4138 24.0886 34.2145 24.2964 34.0758C24.4266 34.0322 24.5648 34.0152 24.7035 33.9982C24.6695 34.18 24.5132 34.3362 24.4266 34.5005C24.2188 34.8991 23.8547 35.2456 23.8632 35.7484C23.9674 35.8956 24.0716 36.0083 24.2528 36.0253C24.4782 36.0599 24.6605 36.0859 24.8943 36.0513C24.8077 36.1034 24.8598 36.1816 24.8598 36.2507C24.9724 36.3633 25.1282 36.2942 25.2669 36.2942C25.2493 36.3554 25.2408 36.45 25.2669 36.5111C26.0205 37.4035 27.0516 37.8456 28.2735 37.8456C28.3341 37.9323 28.4553 37.8541 28.5419 37.8541C28.6025 37.8196 28.6546 37.8366 28.7237 37.8366C29.6857 37.6463 30.6301 37.2732 31.574 36.9788C31.7733 36.8316 32.1114 36.7274 32.0423 36.4245C31.6697 35.8701 31.0548 35.6097 30.552 35.2632C30.2055 35.1505 29.8239 34.9862 29.4688 34.9421C28.8188 34.8385 27.9961 34.8815 27.311 35.0723C26.6264 35.3237 26.003 35.6703 25.3615 35.9036C25.3094 35.9126 25.2403 35.9472 25.1967 35.9381C25.1707 35.8861 25.2658 35.8515 25.3094 35.8255C25.7947 35.4965 25.7771 35.505 26.2453 35.1755C26.2884 35.1494 26.9209 34.7508 26.9905 34.7333C27.5714 34.4473 27.9089 34.2911 28.7492 34.3692C29.0091 34.4734 29.278 34.5164 29.5119 34.6376C29.5443 34.6427 29.5775 34.639 29.608 34.6269C29.6385 34.6147 29.6651 34.5946 29.6851 34.5685C29.7027 34.2996 29.5985 34.2039 29.3822 34.0227C28.9751 33.919 28.6806 33.7973 28.1087 33.8319C27.7277 33.91 27.3461 33.9445 26.991 34.1353C26.7742 34.2044 26.5924 34.3086 26.4277 34.4298C26.0811 34.6031 26.0205 34.7593 25.6825 34.915C25.5438 35.0537 25.1882 35.2706 25.05 35.4003C24.8683 35.4609 24.5993 35.582 24.4351 35.556C24.4261 35.3912 24.5908 35.3131 24.6254 35.1399C24.669 35.0883 24.7471 35.0623 24.712 34.9581C24.8507 34.7928 25.0155 34.594 25.1191 34.4037C25.4487 34.1178 25.6565 33.8664 26.1157 33.6326C26.8087 33.3381 27.5624 33.3642 28.1087 33.3466C29.3391 33.4593 30.0673 33.6326 30.8725 33.598C31.4268 33.4944 32.0162 33.4593 32.4579 33.0867C32.5355 33.0091 32.5275 32.8874 32.5706 32.7923C32.4669 32.6621 32.3543 32.6621 32.2325 32.7317C31.4959 33.0952 31.236 33.0086 30.6035 33.0522C29.9796 33.0782 29.5204 33.0091 29.0617 32.9916C28.4202 32.914 27.9264 32.7147 27.2855 32.8268C27.0862 32.7923 26.627 33.0352 26.4537 32.9825C26.4622 32.307 27.0341 31.7261 27.4157 31.1372C27.8058 30.8513 28.2214 30.5478 28.6891 30.366C28.9756 30.1407 29.3652 30.002 29.5469 29.6645C29.8244 29.4561 30.0062 29.1362 30.214 28.8587C30.2831 28.7025 30.2831 28.5553 30.2831 28.3645L30.3091 28.2869C30.7943 27.9919 31.2365 27.6719 31.7043 27.3509C31.7393 27.3073 31.843 27.2382 31.8515 27.1776C32.0774 26.9959 32.3543 26.779 32.51 26.5361C32.6487 26.3804 32.7183 26.5797 32.848 26.6228C32.9171 26.796 33.1164 26.8136 33.2642 26.8827C33.5235 26.9868 33.8095 27.0209 34.0784 27.099C34.9096 27.1426 35.8371 27.2377 36.6779 27.2723H36.7475C37.2843 27.3413 37.8823 27.3504 38.4281 27.4631C39.2514 27.6188 40.0746 27.6794 40.8974 27.9393C41.5554 28.1125 42.2054 28.3203 42.8469 28.5717C43.1238 28.7105 43.4698 28.8662 43.6951 29.083C44.217 29.4145 44.6997 29.8041 45.1339 30.2443C45.2295 30.383 45.3332 30.5042 45.4288 30.6514C45.6542 30.8853 45.7934 31.1367 45.9571 31.379C46.0608 31.5784 46.2425 31.7607 46.2696 31.9945C46.3993 32.0902 46.2861 32.2804 46.4158 32.3846C46.3993 32.5058 46.5375 32.5233 46.6066 32.5839L46.7884 32.61C46.8144 33.26 46.9191 33.9876 46.9016 34.6812C46.9973 35.7468 46.832 36.7689 46.7884 37.8435C46.7528 37.9312 46.7528 38.0694 46.7528 38.13ZM22.3623 33.607C22.5095 33.0782 23.5236 30.9905 24.087 30.9294C24.2082 30.9124 24.1476 31.1117 24.13 31.1633C24.0337 31.4638 23.9584 31.7707 23.9047 32.0817C23.8356 32.4803 23.8356 32.8704 23.8962 33.2685C23.9653 33.7197 23.2462 34.0833 23.2116 34.2826C23.0644 34.3782 22.5707 34.7418 22.5361 34.4128L22.4925 34.2911C22.5707 34.0142 22.2672 33.9196 22.3623 33.607ZM21.6953 37.5757C21.6607 37.5672 21.7123 37.4539 21.6607 37.4199C21.5682 37.1361 21.4581 36.8583 21.3312 36.5882C21.2361 36.5972 21.2791 36.4664 21.2015 36.4324C21.1925 36.2852 21.3057 36.2156 21.3573 36.0944C21.4094 36.1029 21.4179 36.0508 21.4609 36.0423L21.539 36.0163C21.539 36.0508 21.53 36.0939 21.5475 36.1204C21.5736 36.1029 21.5736 36.0859 21.5996 36.0508C21.539 36.0508 21.5736 36.0163 21.5736 35.9902C21.5736 35.9817 21.5651 35.9817 21.5736 35.9732V35.9902C21.5957 35.9993 21.6189 36.0052 21.6427 36.0078C21.6512 36.0513 21.6948 36.0253 21.7298 36.0513C21.842 36.121 21.7553 36.3203 21.825 36.4415C21.7989 36.9267 21.842 37.2908 21.8856 37.7494C21.9462 37.8451 21.9031 38.0529 21.9291 38.1916C21.9291 38.2698 21.8425 38.2437 21.808 38.2352C21.6607 38.0524 21.7995 37.7489 21.6953 37.5757ZM21.5396 34.3697C21.2797 34.4909 21.1755 34.8374 20.855 34.8374C18.3512 34.855 19.8064 32.3857 21.0022 32.4723C21.3057 32.4984 21.6698 32.6105 21.9642 32.5499L22.0163 32.6451C21.7819 33.0527 21.6778 34.205 21.5396 34.3697ZM22.0158 28.712C21.6953 29.1713 21.4354 29.622 21.158 30.1067C21.158 30.0897 21.0883 30.1067 21.0798 30.1067C21.0883 29.9419 21.0277 29.7081 21.1404 29.5614C21.5045 26.6844 25.6979 26.7541 27.8122 26.6589C28.4101 26.6329 29.0947 26.4511 29.6665 26.5372C30.4638 26.6414 31.1047 26.2428 31.8414 26.0865C31.8068 26.3034 31.5985 26.4415 31.4773 26.6063L31.3816 26.6844C31.252 26.7626 30.8879 27.0139 30.8273 27.1C28.1847 29.8383 23.9392 25.9302 22.0158 28.712ZM29.4151 28.7641C28.9038 29.5874 28.1327 29.8213 27.388 30.3325C26.5733 30.1072 25.707 33.3477 24.6238 33.2786L24.5286 33.1829C24.3378 31.5279 25.2653 29.0846 27.1367 28.7902C27.8993 28.669 28.5664 28.9374 29.3721 28.643L29.4151 28.7641ZM22.3623 26.9098C20.7163 28.0275 17.5795 29.5523 15.8638 27.698C17.1633 27.5332 17.6576 27.5853 18.8098 26.8316C20.3432 25.8176 22.7349 23.5561 24.7885 24.5526L24.8491 24.5962C25.5161 24.6568 26.8332 25.5231 27.4832 25.8787C26.383 26.4415 24.1385 25.6969 22.3623 26.9098ZM21.5305 31.8138C21.3137 31.6666 21.5651 30.9645 21.6432 30.7567C22.458 28.5903 23.1165 28.4607 25.2477 28.3825V28.4086C25.4731 28.4001 25.6899 28.4692 25.8978 28.5122C25.8281 28.6249 25.6639 28.694 25.5422 28.7551C25.2302 28.9199 25.109 29.2494 24.8231 29.4311C23.8181 30.0636 23.2812 30.8694 22.4755 31.6841C22.1545 31.5624 21.8255 32.0131 21.5305 31.8138ZM25.6113 36.2841C25.733 36.2586 25.8882 36.1369 25.9663 36.2496V36.5616C25.9318 36.5531 25.8797 36.5531 25.8621 36.5095C25.7631 36.4535 25.6775 36.3766 25.6113 36.2841ZM30.1082 36.3803C30.1257 36.5446 30.1172 36.6833 30.0476 36.8045C30.004 36.8651 29.987 36.8996 29.978 36.9166C29.8568 37.0559 29.7356 37.1074 29.5884 37.142C29.4327 37.1855 29.2679 37.2196 29.1377 37.2546C28.4962 37.497 27.5953 37.3328 26.9714 37.1244C26.8847 37.0814 26.7981 37.0468 26.7115 37.0032C26.6617 36.9815 26.6174 36.949 26.5818 36.9081C26.614 36.8312 26.6202 36.7459 26.5993 36.6652C26.5648 36.544 26.5472 36.4229 26.5122 36.3011C26.5122 36.2491 26.5212 36.206 26.5382 36.1539C26.5557 36.1018 26.5818 36.0503 26.5988 36.0067C27.1531 35.6953 27.7596 35.4178 28.4356 35.3833C28.7473 35.3684 29.0595 35.3976 29.3631 35.4699C29.6315 35.5305 29.8999 35.6171 30.1603 35.6953C30.1054 35.7321 30.0654 35.7873 30.0476 35.851C30.0566 36.0333 30.0912 36.215 30.1082 36.3803ZM30.5849 36.1284C30.5849 36.0593 30.5589 35.9552 30.5158 35.869C30.8228 36.0457 31.1079 36.258 31.3652 36.5015C31.348 36.5177 31.3272 36.5296 31.3046 36.5361C31.2791 36.5536 31.253 36.5621 31.2179 36.5796C31.1919 36.5882 31.1574 36.6057 31.1223 36.6232C31.0472 36.657 30.9688 36.683 30.8884 36.7008L30.6806 36.7529C30.6546 36.6578 30.6631 36.5626 30.6631 36.476C30.6625 36.3623 30.6546 36.2411 30.5849 36.1284ZM39.0409 25.0033C41.2933 26.0865 43.685 25.3844 45.4092 27.4817C46.0246 28.2268 46.4753 29.2403 46.4057 30.2454L46.4318 30.3926L46.4403 30.5398L46.3627 30.6355C45.9901 30.3756 45.7562 29.9594 45.4182 29.648C43.1488 27.5598 40.7055 27.1091 37.6994 26.728C37.0579 26.6504 33.185 26.5287 33.1068 25.9398C33.0978 25.8962 34.0688 24.0684 34.181 23.765C34.2506 23.6002 34.3457 23.453 34.3718 23.2797C34.4324 23.0714 34.5365 22.8901 34.5536 22.6728L34.6832 22.3613C35.5325 22.7769 36.4595 24.6658 38.5131 24.4235C38.5386 24.7264 38.8937 24.778 39.0409 25.0033ZM38.8416 23.5136C41.7791 23.7129 42.2123 22.5255 45.4012 23.9292C45.9731 24.1806 46.6135 24.7174 46.7613 25.3499C46.9085 25.9478 47.0302 27.4381 46.5535 27.9058C46.3366 27.4551 45.8259 26.9613 45.5048 26.5627C44.1357 24.778 39.1366 25.5667 38.8416 23.5136ZM44.8033 20.9135C45.0111 21.1304 45.254 21.3297 45.4097 21.5981C45.575 21.8755 46.1984 23.2792 46.1033 23.5476C44.6385 22.9497 43.4427 22.3002 41.7882 22.6292C39.9779 22.9842 37.2748 23.2792 36.4079 21.1564C36.2001 20.6451 35.81 18.8174 35.7839 18.7562C35.8015 18.4267 35.7924 18.0892 35.8536 17.7597C36.0614 18.0026 36.1911 18.314 36.4855 18.4703C36.8405 18.8429 37.3167 19.1378 37.8031 19.2675C39.9343 19.874 42.6114 18.3491 44.3356 20.3076C44.5003 20.4979 44.63 20.7233 44.8033 20.9135ZM36.1305 16.937C36.139 16.8067 35.9747 16.7116 36.0268 16.5904C36.4159 15.7326 36.9102 15.1177 37.1531 14.1642C37.6038 12.3534 37.2748 12.2062 37.1531 10.5602C38.0449 10.1525 39.8216 11.9723 39.9163 12.8302C39.8387 13.35 39.7701 13.8697 39.752 14.3895C39.7084 15.958 37.751 18.6957 36.1305 16.937ZM47.0818 11.0018C47.558 11.3659 48.0783 11.5998 48.5545 11.9463L48.4684 12.0154C47.2029 12.5697 45.5649 13.3239 44.1533 12.7696C42.9489 13.0034 42.1862 13.2458 41.3109 14.1642C40.9899 14.4071 40.748 14.7361 40.3755 14.8923C40.5912 13.5317 40.5136 12.0414 40.9899 10.7334C42.4472 6.81692 44.959 9.41642 47.0818 11.0018ZM37.5336 6.69574C37.6197 6.54852 37.6633 6.38376 37.7589 6.24504C37.8982 6.29713 37.9843 6.47039 38.08 6.58307C39.1105 7.66624 40.8352 7.18949 41.5628 8.47197C41.5543 8.481 41.5027 8.56764 41.5288 8.57614C40.9484 9.01834 40.4887 9.74594 40.367 10.465L40.064 11.2453C39.9258 11.2798 39.8562 11.1586 39.7701 11.072C39.2498 10.5432 38.08 9.9022 37.3263 9.83311C36.9617 9.79856 36.5812 9.9022 36.2166 9.79856C33.8775 9.11294 37.1174 7.35425 37.5336 6.69574ZM35.0643 7.78741L35.0904 7.848C34.9081 8.35929 34.7178 8.39384 34.7178 9.04385C34.7178 9.66781 35.7483 10.7505 36.3898 10.5687C37.2211 11.6949 36.3213 14.5803 35.7398 15.6981C35.3242 16.1833 34.3537 15.9495 33.9987 15.5078C33.9381 15.3606 33.8079 15.2479 33.7303 15.1001C33.4534 14.4422 33.0021 14.0781 32.3181 13.8873C31.8419 13.671 31.3652 13.9479 31.0356 13.3239C30.7842 12.8817 30.6195 12.3534 30.2905 11.9378C29.6671 11.1406 27.8558 11.106 27.7176 10.6904C30.2815 9.07786 31.8323 7.27612 35.0643 7.78741ZM27.4051 11.6864C27.4481 11.5828 27.5438 11.6343 27.6214 11.6694C28.0545 11.8427 28.4446 11.8947 28.9038 12.0074C30.0216 12.2673 30.2124 13.5928 31.0787 14.4331C31.3386 14.6845 31.7632 14.5889 32.0837 14.6234L32.0146 14.7967C31.304 15.2989 30.0216 15.646 29.5453 14.5538C29.2164 13.8171 27.7606 14.1467 27.4662 12.6824C27.4136 12.4315 27.3014 11.9373 27.4051 11.6864ZM26.7205 11.2447L26.729 11.5998C26.729 11.6774 26.6509 11.7039 26.6169 11.747C26.5472 11.7124 26.4346 11.6513 26.3394 11.6083C26.2353 11.5737 26.1492 11.5126 26.0795 11.4781C26.2703 11.3829 26.5042 11.3308 26.7205 11.2447ZM21.1064 13.2282C21.3923 13.0901 21.3748 12.6394 21.2015 12.4315C21.2276 12.0935 21.21 11.8246 21.2706 11.4871L21.2797 11.418C21.5135 10.6553 21.9121 10.413 22.484 9.95376C22.6833 10.144 22.7354 10.4305 22.9517 10.6123C23.6884 11.2272 24.5026 11.4095 25.2392 11.9118C25.43 12.068 26.4696 12.5006 26.721 12.5533C26.8077 12.9513 26.8512 13.402 27.1106 13.731C27.7691 14.5107 28.0381 14.5543 28.8698 14.9354C29.4417 16.001 30.8193 16.4778 31.8499 15.7672C31.9886 15.6715 32.6471 15.1347 32.6992 15.1171C32.9075 15.3425 33.3662 15.3946 33.3407 15.7757C33.7994 16.642 34.51 16.8934 35.4454 16.7892C35.4688 16.8969 35.4569 17.0093 35.4114 17.1097C35.4029 17.2659 35.3593 17.4047 35.3247 17.5519C35.0298 18.9295 35.5671 21.4424 36.5551 22.4905C37.118 23.0884 37.5857 23.2005 38.3489 23.4344C38.2713 23.5816 38.435 23.7809 38.2793 23.859C36.3819 23.5906 35.4114 22.0052 35.203 21.9531C34.9947 21.7363 34.7959 21.4939 34.8565 21.1819C35.1424 18.5569 31.4428 18.1929 30.1427 19.9601C29.9604 20.2114 28.8603 19.7868 28.5398 19.6741C28.2623 19.1022 26.8502 18.5219 26.2788 18.2099C26.3394 16.0526 23.2547 12.9248 21.0713 14.3975C20.9847 14.5968 20.6557 14.8737 20.5255 15.1257C20.5255 15.1257 19.5029 14.5798 19.2085 14.5277L19.1303 14.3975C19.8149 13.7486 20.2826 13.5928 21.1064 13.2282ZM27.336 20.4373C27.9945 20.3162 28.7221 20.4203 29.3375 20.6893C29.632 20.8104 29.8052 21.3908 30.1693 21.0097C30.2995 20.871 30.4032 20.7063 30.5158 20.5505C31.0702 19.8054 32.8294 19.1899 33.5831 19.8835C33.6872 19.9792 33.9907 20.2646 33.9386 20.4294C33.9296 20.4554 33.895 20.4554 33.869 20.4554L33.843 20.4985C33.5831 20.4209 33.3056 20.516 33.0457 20.5856C30.0912 21.3913 31.4688 24.8917 26.4696 22.9162C26.2012 22.812 25.066 22.2922 24.9012 22.1365C25.6979 21.512 26.2873 20.6366 27.336 20.4373ZM24.8576 21.2606C24.0694 21.7283 21.7298 20.4113 20.7333 20.238C21.0623 19.7012 22.2496 19.0337 22.8821 19.1028C23.7399 19.1984 25.3339 18.592 25.9754 18.8865C26.4861 19.1113 26.9804 19.3542 27.4481 19.6661C25.4471 20.238 25.9844 20.5931 24.8576 21.2606ZM20.5255 16.7982L20.3522 16.8418C19.6677 16.6946 19.0262 16.3911 18.3336 16.313C16.6175 16.1222 14.6164 16.339 13.0135 16.98C12.2508 17.283 11.5317 17.7682 10.769 18.0802C11.4195 16.5559 19.5635 13.0119 20.5255 16.7982ZM18.1434 16.9545C18.6541 16.9975 20.3698 17.613 20.5255 17.604L20.5515 17.7597C18.6802 20.9826 14.8593 20.1854 11.714 20.0127C10.9949 19.9781 10.2928 20.0042 9.5742 20.0042C12.0775 17.7597 14.7121 16.668 18.1434 16.9545ZM2.51234 28.2178C2.51234 26.9007 3.46529 25.5407 4.19343 24.5181C5.17296 23.1575 7.21706 21.5285 8.77697 20.9135C12.1386 19.588 18.2991 23.2356 20.9937 18.1674C20.9762 17.6996 21.3057 17.2144 21.2021 16.6771C21.1324 16.2524 20.8816 15.9404 20.812 15.5684C21.2882 15.5248 21.3062 14.8663 21.826 14.7972C23.8016 14.5113 25.1096 16.4347 25.6294 18.0898C24.8757 18.0898 24.1566 18.4193 23.42 18.4363C22.0854 18.4623 20.864 18.7137 20.0147 19.9181C19.9021 19.9702 19.3041 20.6893 19.2781 20.8104C19.0703 20.9577 19.3302 21.3308 19.5901 21.2781C20.1189 21.183 20.4564 20.9231 21.0283 21.0613C21.8691 21.2521 22.5967 21.7719 23.437 21.9802C23.437 22.188 23.5321 22.5 23.749 22.5952C24.2257 22.7945 24.7891 22.8205 25.2653 23.1065C26.5823 23.9037 29.1558 24.9348 30.4728 23.7389C30.949 23.3058 33.5831 20.1434 34.2506 21.6247L34.173 21.9106C33.6612 24.0164 31.9285 26.07 29.5113 25.749C26.4702 25.3594 25.2143 22.474 21.462 24.146C19.2526 25.1426 18.256 27.378 15.4923 26.8577C15.0331 26.7801 14.4873 26.6063 14.1492 26.2688C14.8253 24.4229 15.4923 22.9502 17.3637 22.0403C17.7883 21.841 18.4899 21.4769 18.9751 21.546C19.0878 21.4769 19.0878 21.2946 19.0618 21.1819L18.8455 20.9917C17.9441 21.0608 17.606 21.3903 16.8614 21.5721C16.5494 21.9016 15.943 21.9531 15.5444 22.2221C15.4402 22.3002 14.7387 22.6292 14.626 22.6292C13.3525 22.6292 12.6504 21.841 10.9263 22.1785C10.415 22.2821 9.72196 22.3863 9.27126 22.6547C8.11899 23.3478 6.98374 23.9196 5.86602 24.6908C4.78232 25.428 2.69411 28.1136 2.51234 28.2178ZM6.02121 30.7046C5.72677 30.7306 5.33666 30.7567 5.18944 30.4617C4.94708 30.1407 4.92104 29.6815 4.88649 29.2834C5.11184 29.1617 5.18944 28.9103 5.39778 28.7631C5.52799 28.6504 5.6141 28.4941 5.70923 28.3475C5.87453 28.2433 5.85699 28.0615 6.02121 27.9834C5.79586 28.5207 5.77832 29.0926 5.77832 29.6469C5.79639 30.0285 5.94309 30.332 6.02121 30.7046ZM6.64518 29.8383C6.2641 27.4035 8.10092 27.8197 8.45596 27.4817C8.77697 27.7931 8.88912 28.2093 9.29677 28.4952C8.17905 27.8718 7.02679 29.5353 7.84102 29.7601C8.27419 29.8813 8.4129 29.0065 8.91516 29.2839C9.58218 29.656 8.53408 30.9039 7.71081 30.8258C7.25161 30.7827 6.72331 30.306 6.64518 29.8383ZM8.15301 26.6063C7.65075 26.728 7.12192 26.8492 6.74935 27.2218C6.68026 27.1872 6.68026 27.2994 6.67122 27.2653C6.87053 26.9363 7.17401 26.6504 7.43391 26.373C7.66776 26.2343 7.85856 25.9744 8.08391 25.8011L8.09242 25.8096C8.08338 26.078 8.08338 26.3379 8.15301 26.6063ZM7.48546 31.649C9.28773 31.8569 10.3013 30.0982 9.38287 28.5903C10.0674 28.9714 11.3669 29.4397 11.5492 30.2454C12.3114 33.6421 7.52904 33.9711 7.48546 31.649ZM12.0084 36.1805C10.8301 36.5185 8.97575 35.2446 9.1926 33.9536C11.9478 34.4128 13.2648 30.1848 11.402 28.8247C10.735 28.3395 9.81656 28.1747 9.29677 27.4902C7.40786 25.0118 10.8131 24.5271 10.8737 24.3103C10.9082 24.1891 10.8476 23.9377 10.7525 23.8596C10.077 23.2882 7.07834 25.6624 6.50699 26.1556C6.4379 26.3724 6.18651 26.4591 6.10838 26.6669C5.05976 27.5768 4.25402 29.5523 2.58196 29.622C3.82989 26.9358 9.21864 22.3007 12.3379 22.8375C13.1437 22.9762 14.0966 23.3834 14.8939 23.3658V23.4525C14.5819 23.8165 13.6204 25.74 13.6374 26.1986C13.014 26.7014 14.4522 27.2988 14.7466 27.4115C14.8593 27.698 15.1367 27.8447 15.319 28.07C13.5944 28.4341 13.1702 25.8176 12.2258 26.8141C11.8447 27.2212 12.0004 27.5157 11.8793 28.0009C11.8187 28.4256 12.2343 29.032 12.4336 29.37C12.9534 29.8292 13.1527 30.5048 13.5338 31.0596C13.5683 32.2294 14.2529 32.1858 13.5513 34.1353C13.4907 34.3086 13.3605 34.4734 13.3605 34.6636C13.005 35.1494 12.6239 36.0072 12.0084 36.1805ZM14.8503 39.3779C14.2093 38.7545 12.7796 37.4369 13.0655 36.3628C13.1522 36.0684 13.7846 35.4444 13.9664 34.9071C14.3996 33.6506 14.7201 32.7147 14.3044 31.3806C13.8973 30.0987 12.9704 29.2409 12.5542 28.0365C12.6494 27.8202 12.5803 27.5603 12.7366 27.3695L12.8141 27.2744C13.1958 27.6645 13.2819 28.1322 13.8017 28.4527C14.3735 28.8077 15.4222 29.0766 15.9935 28.5914C17.2154 29.311 19.4508 29.4753 20.6897 28.7131H20.7418C20.5165 29.9605 20.3432 30.4027 20.7243 31.6852C18.8874 32.1874 18.1593 35.0383 19.8059 35.5496C19.9531 35.818 20.3086 35.7399 20.551 35.8265C20.5685 35.9823 20.3086 36.3208 20.2305 36.4505C19.7453 37.2738 19.7883 39.0325 18.3932 39.067C17.3275 39.093 17.5619 36.3293 16.1322 36.8491C14.5208 37.4295 15.8293 39.3875 17.2064 39.5002C17.3536 39.5177 17.4838 39.4656 17.631 39.4832C17.6656 40.2458 16.8343 40.8953 16.1322 40.4622C15.2664 40.4956 15.2919 39.8111 14.8503 39.3779ZM16.956 38.7019C16.9209 38.7545 16.8343 38.7364 16.7907 38.7194C16.4527 38.5291 16.2624 38.1821 16.1152 37.8185C16.1588 37.6277 16.2885 37.5496 16.4447 37.4369C16.7482 37.4975 16.6786 37.8876 16.7913 38.1125C16.8258 38.3118 16.8779 38.5111 16.956 38.7019ZM16.4878 42.739C16.4559 42.8169 16.4183 42.8922 16.3751 42.9644C16.3406 43.0335 16.323 43.0946 16.2624 43.1116C16.2539 43.0861 16.1322 42.9995 16.1322 42.8953C15.9675 42.4621 16.0201 41.8557 16.2539 41.3965C16.2624 41.3077 16.3022 41.2249 16.3661 41.1627C16.7477 41.1111 17.2154 41.2232 17.588 41.059C17.8739 40.8943 18.0557 40.6519 18.2034 40.3394C18.2119 40.2528 18.2725 40.2182 18.2986 40.1401C18.3591 40.1316 18.3677 40.0534 18.3937 39.9929C18.4027 39.8807 18.3506 39.7245 18.4463 39.6724C18.8965 39.6118 19.3817 39.5687 19.6942 39.2392C20.1965 38.797 20.5 38.1475 20.6993 37.5326C20.7684 37.472 20.7774 37.3593 20.812 37.2637C20.838 37.2116 20.8816 37.3073 20.8816 37.2376C20.8986 37.3934 20.9937 37.4715 21.0113 37.6277C21.0458 38.113 20.9852 38.468 20.7944 38.8406C20.5515 39.2392 20.0583 39.5427 19.7809 39.9493C19.5816 40.1746 19.2871 40.2873 19.0618 40.4436C18.5848 40.8276 18.0965 41.1973 17.5975 41.5522C17.2244 41.9338 16.8088 42.324 16.4878 42.739ZM17.8133 43.8227C17.7091 44.0125 17.7012 44.2554 17.588 44.4292C17.571 44.5068 17.5534 44.6109 17.5104 44.6545C17.3977 44.6885 17.2675 44.6205 17.1808 44.5684C17.1288 44.4648 17.0767 44.4552 17.0597 44.317C16.9214 44.0693 16.8666 43.7836 16.9034 43.5023C17.1288 42.8438 17.6836 42.4802 18.1428 42.0035C18.6276 41.6394 19.1394 41.2583 19.598 40.8772C19.8059 40.8167 19.901 40.6434 20.0918 40.5477C20.4994 40.1752 20.7934 39.8632 21.175 39.447C21.3307 39.2738 21.4519 39.0399 21.5475 38.8491C21.8335 38.8321 21.9116 39.0829 22.0328 39.2567C22.1975 39.6724 22.2491 40.1661 22.0152 40.5562C21.9807 40.6083 21.9026 40.6253 21.9111 40.6859C21.5215 41.1621 20.8805 41.3014 20.3342 41.6043C19.8664 41.7951 19.3637 42.0029 19.0432 42.367C18.559 42.8087 17.9696 43.1467 17.8133 43.8227ZM18.3246 46.3787C18.2901 46.2665 18.2725 46.1453 18.2034 46.0577C18.1774 45.7202 18.0647 45.3997 18.1428 45.0787C18.1683 44.8097 18.3156 44.6024 18.3331 44.3425C18.3591 44.3165 18.3932 44.3165 18.3932 44.2814C18.4628 44.1868 18.4713 44.0396 18.5404 43.9349C19.0256 43.2684 19.7102 42.6009 20.4989 42.2719C20.9666 42.0986 21.3392 41.8472 21.7984 41.6654C21.8505 41.5437 22.0152 41.5613 22.0668 41.4661C22.214 41.362 22.2661 41.2062 22.4133 41.1281C22.4739 41.1802 22.5 41.2929 22.5606 41.388C22.6302 41.8302 22.7859 42.2458 22.9156 42.6705C22.9762 42.9564 23.1409 43.2424 23.0198 43.5543C22.9937 43.8142 22.9592 44.0922 22.7859 44.274C22.6387 44.5254 22.4479 44.6551 22.1795 44.7762C22.188 44.8538 22.0668 44.8459 22.0323 44.9059C21.0484 45.5669 20.242 46.4596 19.6841 47.5054V47.583C19.6581 47.6266 19.6151 47.6962 19.589 47.7483C19.5004 47.9657 19.4364 48.1922 19.3982 48.4238C19.3637 48.4323 19.3637 48.4759 19.3286 48.4759C19.3461 48.5099 19.2765 48.4844 19.3201 48.536C19.1899 48.4238 19.1984 48.2506 19.1383 48.0598C19.0426 47.7744 19.1729 47.2801 18.7742 47.1419C18.5605 46.931 18.4055 46.6679 18.3246 46.3787ZM31.8935 56.5423C31.4948 56.5763 31.1308 56.7937 30.7757 56.9409C30.4813 57.1306 30.1002 57.2178 29.7967 57.4171C29.3375 57.5728 28.9389 57.8758 28.5669 58.1272C28.2289 58.2664 27.9429 58.4918 27.5788 58.5954C27.5964 58.6294 27.5353 58.6294 27.5098 58.6294C27.1808 58.7767 26.9209 58.968 26.5828 59.0801C26.4704 59.1694 26.3406 59.2344 26.2018 59.2709C26.0801 59.2885 25.9679 59.3485 25.8377 59.3746C25.742 59.4267 25.5948 59.3661 25.5082 59.4357C25.1616 59.4617 24.8497 59.5999 24.5207 59.6775C24.434 59.7126 24.3123 59.8083 24.365 59.9204C24.3735 59.9465 24.4085 59.964 24.434 59.9465C24.6334 60.1118 24.9103 60.1553 25.1877 60.1118C25.6644 60.0342 26.2278 59.9645 26.6174 59.7472C27.2414 59.4097 27.8823 59.1328 28.5233 58.8282C28.636 58.8117 28.7487 58.6725 28.8698 58.6725C28.9474 58.5949 29.0691 58.5603 29.1643 58.4556C29.7967 57.997 30.62 57.728 31.3131 57.3385C31.4778 57.33 31.6075 57.1912 31.7808 57.2167C31.8068 57.2688 31.7027 57.3028 31.7462 57.382C31.6686 57.5282 31.5905 57.702 31.6596 57.8232V58.0576C31.287 58.1612 30.9315 58.3515 30.5589 58.4126C30.1948 58.5598 29.8313 58.7501 29.4848 58.9329C29.4502 59.019 29.2855 59.019 29.2424 59.0971C28.679 59.3576 28.2629 59.7126 27.7261 59.9815C27.6915 60.0852 27.5703 60.0501 27.5268 60.1112C27.3275 60.2149 27.0851 60.3881 26.8853 60.4322C26.5733 60.622 26.2964 60.6916 25.9413 60.8133C25.1005 61.0466 24.2082 61.0551 23.3158 60.8829C22.9608 60.8479 22.5967 60.614 22.2326 60.4748C21.7995 60.1197 21.2015 59.9204 20.9592 59.3661C20.812 59.2364 20.7078 59.0286 20.5345 58.9334C20.5255 58.8378 20.4389 58.8117 20.4304 58.7426C20.1189 58.4301 20.1099 57.9018 19.9797 57.4867C19.9972 56.9664 19.7718 56.4126 19.9276 55.9098C19.9536 55.6148 19.9711 55.2598 20.0578 54.9654C20.1529 54.5492 20.205 54.1161 20.2741 53.7095C20.3347 53.6919 20.2826 53.5963 20.3177 53.5527C20.3177 53.3629 20.4128 53.2061 20.3958 53.0159C20.4564 52.9287 20.4564 52.833 20.4649 52.7209C20.4909 52.7124 20.5255 52.7034 20.5255 52.6773C20.6297 52.7645 20.7769 52.9542 20.9587 52.9117C21.0708 52.8681 21.158 52.7209 21.158 52.5907C21.1489 52.5646 21.1059 52.5211 21.158 52.5131C21.1144 52.452 21.1489 52.3223 21.0798 52.3042C20.9932 51.6462 20.231 51.2476 19.6501 50.9091C19.0177 50.6151 18.5149 50.0693 18.5409 49.2806C18.5409 49.1599 18.5499 49.0037 18.5845 48.8655C18.593 48.8995 18.6536 48.8559 18.6536 48.9176C18.7142 49.1605 18.9305 49.498 19.1734 49.7313C19.3637 49.853 19.4593 50.0438 19.6847 50.1039C20.0748 50.4328 20.6206 50.5375 20.8805 51.0228C21.0883 51.2917 21.2271 51.5686 21.3482 51.8801C21.4439 52.2787 21.4519 52.6337 21.4955 53.0159C21.5215 53.3969 21.5821 53.8296 21.4955 54.2457C21.4955 54.3414 21.504 54.4275 21.4864 54.5311C21.3567 54.5843 21.504 54.7044 21.4955 54.8001C21.4694 55.0169 21.4864 55.2859 21.4434 55.5016C21.53 56.2388 21.2526 57.036 21.5385 57.7201C21.521 57.9018 21.6857 57.997 21.6421 58.2048C21.7548 58.4041 21.7979 58.6385 22.0147 58.7767C22.0583 58.8543 22.0583 58.976 22.1795 58.9499C22.2831 59.0195 22.3092 59.1407 22.4479 59.1407C22.7514 59.1747 23.0548 59.2965 23.3668 59.2879C24.4845 59.0886 25.455 58.4471 26.4856 58.0225C27.2307 57.5638 27.9759 57.0956 28.7646 56.749C29.3801 56.3419 30.0901 56.1511 30.7662 55.8397C31.1212 55.7004 31.4938 55.6664 31.8579 55.5447C32.2389 55.5707 32.6981 55.4315 33.0622 55.6404C33.2876 55.6839 33.4778 55.8046 33.7122 55.8822C33.6947 56.1426 33.7643 56.4461 33.7898 56.6709C33.1148 56.7932 32.569 56.3866 31.8935 56.5423ZM33.1584 59.0897C32.9936 59.0025 32.8294 58.8644 32.7343 58.6996C32.491 58.442 32.3441 58.1085 32.3181 57.7551C32.8034 57.3741 33.4964 57.4262 34.1119 57.4958C34.2506 57.6775 34.2676 57.9204 34.4499 58.0677C34.476 58.1373 34.5536 58.2058 34.5971 58.267C34.7874 58.5439 35.0303 58.7612 35.2817 59.0031C34.6657 59.3751 33.7733 59.3581 33.1584 59.0897ZM38.5126 58.4301C38.4265 58.5258 38.3829 58.639 38.3484 58.7602C38.1576 58.976 37.8977 59.1237 37.5937 59.1067C36.6582 59.0796 35.835 58.6645 35.22 57.9885C34.8825 57.6759 34.6742 57.3305 34.5355 56.8787C34.4488 56.6194 34.258 56.2904 34.4403 56.039C34.7954 55.9518 35.1594 55.9614 35.4805 56.1251C35.5666 56.099 35.5581 56.1947 35.6447 56.1772C36.2522 56.4461 36.5987 57.2258 37.2131 57.5202C37.2652 57.5899 37.3263 57.6334 37.4039 57.6759C37.7765 57.8668 38.1661 58.0661 38.5647 58.2138C38.5998 58.2664 38.5046 58.3525 38.5126 58.4301ZM50.5997 50.8315C50.2967 51.2216 50.1926 51.6462 50.0103 52.0884C49.9762 52.4339 49.7769 52.7549 49.9156 53.1275C49.9932 53.9768 49.8545 54.7304 49.846 55.6148C49.7764 56.2292 49.6031 56.7932 49.4734 57.365C49.2826 57.7977 49.187 58.2659 48.867 58.6385C48.7278 59.1328 48.3552 59.4782 47.9662 59.8168C47.7318 60.0076 47.4458 60.1197 47.221 60.3015C46.588 60.5965 45.7998 60.7777 45.0371 60.6565C44.3871 60.6916 43.7727 60.4668 43.0876 60.3887C42.5769 60.1894 42.0135 59.9725 41.5283 59.7386C41.2072 59.5133 40.8182 59.288 40.5753 59.011C40.1071 58.6464 39.7345 58.1006 39.1541 57.8753C38.7034 57.5287 38.3308 57.2348 37.811 57.0616C37.7334 57.018 37.6893 56.9398 37.6457 56.9223C37.6633 56.8622 37.785 56.9138 37.8801 56.9138C38.0273 56.8266 38.1916 56.9914 38.3744 56.9563C38.4169 57.035 38.4605 56.9834 38.5126 57.0174C38.8937 57.1296 39.2142 57.2688 39.5612 57.4596C39.6388 57.4936 39.7084 57.6414 39.8216 57.6494C39.9774 57.8747 40.2288 58.0219 40.4881 58.1612C40.7571 58.3945 41.026 58.5598 41.3204 58.7416C41.5973 58.9749 41.9704 59.1662 42.2559 59.3655C42.4727 59.4091 42.6109 59.5824 42.8453 59.6169C43.7451 59.9815 44.7337 60.2845 45.7817 60.2149C46.0682 60.2409 46.3797 60.2489 46.6486 60.1112C46.8644 59.8683 47.2465 59.7812 47.2465 59.4261C47.0121 59.2364 46.7958 59.5478 46.5354 59.4697C45.7993 59.5994 45.0717 59.5218 44.3866 59.3576C44.1012 59.348 43.8408 59.2104 43.5553 59.1407C43.3125 59.019 43.0175 58.9499 42.7496 58.7942C42.2887 58.5562 41.848 58.2809 41.4321 57.9709C41.1206 57.7456 40.7906 57.5638 40.5131 57.3209C40.2537 57.1131 39.9848 56.8702 39.6898 56.7581C39.1355 56.4541 38.494 56.2287 37.836 56.2548C37.507 56.2548 37.1945 56.2287 36.9266 56.3765C36.8049 56.3164 36.6752 56.2207 36.6141 56.1171C36.6141 56.1256 36.5881 56.0735 36.6141 56.0475C36.9006 55.9353 37.186 55.8046 37.4985 55.7706C37.7579 55.6148 38.1049 55.6233 38.3818 55.5452C39.1015 55.4581 39.7249 55.6924 40.3834 55.8567C41.1206 56.1431 41.8562 56.4806 42.5498 56.8107C43.667 57.2954 44.6114 58.0926 45.8684 58.3004C45.8588 58.3355 45.8848 58.3525 45.9024 58.3616C45.9981 58.3616 46.0757 58.3616 46.1538 58.3701C46.293 58.3786 46.3967 58.4562 46.5184 58.3701C46.6305 58.4041 46.7863 58.3265 46.8995 58.2925C47.1328 58.2404 47.4363 58.2404 47.5659 57.9895C47.6967 57.6345 47.9481 57.3395 48.1118 57.0015C48.2075 56.8633 48.1378 56.6204 48.3026 56.4907C48.554 55.6499 48.5715 54.697 48.6491 53.7876C48.5891 53.6308 48.6231 53.4315 48.6491 53.2418C48.6927 53.0424 48.6667 52.8516 48.6667 52.6438C48.7352 52.4881 48.7613 52.3228 48.8048 52.1676C48.8824 51.5957 49.1859 51.111 49.4288 50.6072C49.6106 50.1921 49.7057 49.7414 49.845 49.3167C49.8535 49.2211 49.8535 49.1514 49.9656 49.0903C50.1049 48.8921 50.2606 48.6231 50.4859 48.536C50.7984 48.2421 51.0674 48.0167 51.3608 47.7398C51.3868 47.8174 51.4219 47.9295 51.4219 48.0077C51.6143 49.0898 51.1365 50.0002 50.5997 50.8315ZM51.3453 46.5259C51.1721 46.7512 51.0243 47.0462 50.8511 47.2631C50.6603 47.4092 50.461 47.566 50.2792 47.7302C50.2356 47.6606 50.2967 47.592 50.2616 47.4788C50.2276 47.2019 50.1235 46.933 50.0623 46.6476C49.8545 45.92 49.2747 45.3657 48.8064 44.8102C48.1745 44.1438 47.541 43.4417 47.1695 42.5924C46.9866 42.2719 46.909 41.8993 46.8569 41.4922C47.0302 40.721 47.212 39.9498 47.3252 39.1441C47.3677 38.806 47.4724 38.4595 47.4469 38.1215C47.4373 38.104 47.5069 38.0779 47.4469 38.0694C47.4809 38.0694 47.5069 38.0349 47.4809 37.9998L47.507 38.0343V38.1119C47.5245 38.3718 47.6026 38.5711 47.6366 38.7965C47.7323 39.0388 47.6627 39.2211 47.8184 39.446C47.828 39.6453 47.9316 39.81 47.9837 40.0003C48.1394 40.4425 48.512 40.8411 48.841 41.1961C49.0578 41.43 49.2747 41.6814 49.5346 41.8546C49.9768 42.3654 50.5311 42.8597 50.9818 43.4231C51.2848 43.7611 51.5021 44.1507 51.6573 44.5753C51.9433 45.2083 51.8216 46.0576 51.3453 46.5259ZM51.3453 37.3243C51.3103 37.4539 51.4399 37.7053 51.2236 37.7053C50.6082 37.7053 49.9321 37.125 49.4384 36.7869C49.1009 36.9777 48.7368 38.0349 48.7629 38.4244C48.7629 38.754 48.5986 39.1175 48.6332 39.4816C48.5992 39.4986 48.6167 39.5507 48.5811 39.5682C47.8179 38.5196 48.6943 35.9636 47.9231 34.9756C48.4339 33.8839 48.6167 34.265 49.0403 33.7628C50.3919 33.7628 51.129 34.3952 51.761 35.5044C51.5356 35.7473 51.4841 36.1199 51.1806 36.2841C51.1104 36.6052 51.1886 37.0383 51.3453 37.3243ZM52.1851 44.0396C52.1686 44.0221 52.125 44.0221 52.099 44.0125C51.8396 43.2503 50.461 41.9163 49.8545 41.2923C49.8205 40.9809 49.1705 39.8717 49.3959 39.6373C50.4609 40.8592 52.6012 42.0896 52.1851 44.0396ZM52.1686 41.5262C51.7785 40.6429 50.3488 40.0274 49.6813 38.6758C49.6988 38.459 49.5952 38.3378 49.6813 38.1215C49.7589 37.9222 49.4905 37.9312 49.5856 37.7489C50.0193 37.8355 50.3488 38.2081 50.7899 38.3208C51.1285 38.4159 51.4575 38.3553 51.804 38.4074C52.2287 38.1305 51.9512 37.6453 52.073 37.2897C53.6323 37.5757 53.3209 39.7154 53.5627 40.7986C53.6844 41.3444 53.9964 41.6304 54.1702 42.0896C53.5717 42.2283 52.428 42.1241 52.1686 41.5262ZM56.4226 36.6312C56.2409 37.6102 55.6605 38.3724 55.4782 39.2738C55.3485 40.1922 54.5428 40.9028 55.0456 41.8903C54.1527 41.7861 54.1707 39.3083 54.049 38.6758C53.9714 38.2772 53.8412 37.9131 53.5983 37.5842C53.4165 37.3328 52.8011 36.8736 52.4981 36.7694C52.2467 36.6742 52.0299 36.7088 51.8481 36.544C51.9698 36.2321 52.2117 35.9807 52.3589 35.6777C52.8872 34.577 51.9518 34.239 53.373 33.3642C55.079 32.8444 56.7777 34.898 56.4226 36.6312ZM53.1731 32.7237C52.9127 32.9315 52.6709 32.923 52.4716 33.226C52.3584 33.3907 52.2372 33.5985 52.099 33.7282C52.125 33.8149 52.073 33.893 51.9954 33.919L51.8997 34.0747L51.796 34.265C51.6568 34.248 51.475 34.0833 51.3799 33.9881C51.103 33.5119 49.3703 32.9916 48.8585 33.1133C48.5471 33.1914 47.9491 33.7978 47.6802 33.9972L47.5845 33.9626L47.5585 33.8069L47.55 33.885C47.4543 32.8449 47.3331 30.272 47.0477 29.3791C47.1163 29.31 47.1774 29.2058 47.1774 29.1022C47.3507 29.1452 47.4724 29.3105 47.6621 29.3015C48.6682 29.9339 50.4184 29.631 51.0764 28.6169C51.2061 28.6515 51.3879 28.7211 51.449 28.8598C51.9077 29.1542 52.107 29.7086 52.3584 30.1768C52.3158 30.3846 52.4976 30.5409 52.4801 30.7402L52.6709 30.905C53.0259 30.7923 53.0519 30.3506 53.2948 30.1077C53.4591 29.311 53.3894 28.8779 53.1296 28.1062C53.5978 28.0716 54.5247 28.7647 54.5072 29.2499C54.4731 30.1072 55.3395 32.4904 56.2409 32.6812C56.327 32.7939 56.5002 32.7418 56.5608 32.8805C56.7872 32.9847 57.0551 32.9501 57.298 33.0277C57.4888 32.9411 57.7142 33.0453 57.9044 32.9326C56.6219 34.9501 54.8457 31.9265 53.1731 32.7237ZM61.3607 30.2023C60.8935 30.3496 60.6591 29.4397 60.0878 29.3706C59.7848 29.336 59.1598 29.6134 59.0562 29.9079C58.8919 30.3841 59.0737 31.2425 58.7447 31.6496C57.7046 32.9145 56.0416 32.5419 55.4957 31.0426C55.2869 30.4707 55.0875 30.3411 55.0796 29.682C56.2494 29.8989 56.4662 30.1588 57.6366 29.4827C58.5895 28.9284 60.1829 27.091 61.3527 27.8106C61.5435 27.7846 62.0118 28.7726 62.1064 28.9544C61.9761 29.4312 62.219 30.1067 61.3607 30.2023ZM66.802 30.9384C65.8491 30.8167 66.152 30.4968 65.0604 30.6004L64.8621 30.6265C63.4494 30.5744 61.2485 26.2858 60.6591 25.1245C60.1744 24.1716 58.8053 23.7379 58.4678 23.3653C58.6836 23.2787 59.8794 22.3688 59.8279 22.2215C58.4503 21.4243 58.4848 20.8609 57.4798 20.0727C59.4293 20.4193 61.5696 23.4519 62.505 25.15C62.8871 25.8261 63.7704 26.753 64.0298 27.403C64.5756 27.8016 65.0178 28.4426 65.5467 28.9018C66.1186 29.3264 66.6729 29.7857 67.2272 30.2188C67.5908 30.5138 67.1486 30.982 66.802 30.9384ZM67.6253 29.7862C67.4781 29.7516 66.4906 28.8678 66.3434 28.703C66.2302 28.5728 66.0144 28.6164 65.9272 28.4516C65.789 28.408 65.6939 28.2869 65.5637 28.2178C65.442 28.0185 65.2076 27.9233 65.104 27.698C64.3418 27.2388 64.1685 26.3028 63.527 25.8266C63.4834 25.723 62.7213 24.4835 62.6437 24.3969C62.6001 24.1455 62.2626 24.0849 62.2972 23.799C62.0282 23.5821 62.0543 23.0889 61.6652 22.9932C60.4954 21.4078 59.4117 20.2295 57.4622 19.6661C56.9254 19.5099 56.5268 19.3977 55.9985 19.1634C54.9324 18.8168 54.049 18.6781 52.9393 18.6606C51.2242 18.626 49.2492 18.0541 47.862 18.1583C46.909 18.2279 44.4227 19.1984 44.0847 19.1719C43.8078 19.3191 43.6 19.0422 43.3571 18.9465C42.1352 18.4958 37.2136 19.3366 36.8847 17.9415C37.1275 18.0626 37.4305 18.0366 37.6904 18.0286C39.3545 17.9941 40.9229 16.642 42.6199 16.313C44.0937 16.0356 44.908 17.4132 47.0908 16.0616C52.2292 20.7488 57.5319 15.6715 64.9923 23.6603C66.5693 25.3323 67.5302 27.1691 67.687 29.5087L67.6253 29.7862ZM43.5266 75.8533L45.2625 78.8493C45.524 79.2851 45.7817 79.7034 46.0039 80.1477L42.8804 80.8403L42.8968 80.7345L43.1998 78.3779L43.5266 75.8533ZM51.4904 84.5394C50.8643 83.4828 50.2622 82.4406 49.6377 81.3834L48.259 79.0704L46.4381 75.9697L45.0972 73.7316L44.6353 72.9466L44.546 72.8223L42.6795 73.2363L42.6763 73.3192C42.5413 74.38 42.3999 75.4212 42.2654 76.4821L41.8014 80.0675L41.4172 83.08C41.2668 84.3507 41.0903 85.6045 40.9197 86.8801L42.1177 86.6143C42.208 85.9967 42.2931 85.3595 42.3521 84.7892L42.6842 82.2832L42.7167 82.1525L46.6667 81.2777C47.4278 82.5724 48.1251 83.8612 48.8963 85.1124L51.4904 84.5394ZM25.4625 73.94C26.316 74.1775 27.353 74.2504 27.7946 75.1151C27.9822 75.468 28.0779 75.8613 28.0901 76.2567C28.0988 76.5756 28.0674 76.8944 27.9966 77.2054C27.8866 77.5934 27.7319 77.9081 27.5921 78.2477C27.2477 78.8509 26.6147 79.4488 25.8696 79.5461C25.3105 79.645 24.7593 79.4361 24.1662 79.3207L25.4231 73.9309L25.4625 73.94ZM27.4736 80.6574C28.0226 80.515 28.5605 80.3295 29.0128 79.9787C30.1204 79.2001 30.628 77.7066 30.5238 76.3609C30.3309 74.4996 28.5706 73.6205 26.9039 73.2384L23.1176 72.3705L20.2257 84.9827L22.7365 85.5588L23.9509 80.2625L25.0293 80.5097L25.0245 80.5293L25.7915 84.0297L26.3059 86.3778L28.8167 86.9529C28.3856 84.8716 27.8908 82.7977 27.455 80.7361C27.4555 80.7361 27.43 80.6675 27.4736 80.6574ZM16.0265 75.5499L17.8739 71.4383L21.6921 73.1539L22.2034 72.0165L16.0546 69.2533L10.7493 81.056L16.8444 83.7953L17.3557 82.6563L13.5922 80.9657L15.5146 76.6888L18.4888 78.026L18.9996 76.8871L16.0265 75.5499ZM4.62712 77.2639C5.97232 76.2238 7.44347 75.0758 8.81684 74.0314L11.2085 72.159L15.1516 69.0965L15.2787 68.9886L14.2826 68.2711L11.6252 70.3753L8.8466 72.6144L6.10147 74.8036C6.08552 74.7925 6.06692 74.8525 6.05682 74.7962L7.15647 72.067C7.73313 70.6469 8.29864 69.2427 8.89124 67.8348L9.97122 65.1651L7.83252 63.6238C7.60345 64.2531 7.33877 64.9297 7.08525 65.5909L6.2269 67.8497L6.03025 68.328L4.66167 71.8805L3.53492 74.8897C3.37321 75.3051 3.22029 75.7238 3.07625 76.1456L4.62712 77.2639ZM52.0262 69.8013C51.1561 70.1781 50.3063 70.6814 49.6823 71.3628C48.9866 72.0803 48.5832 73.1454 48.6098 74.1706C48.6172 75.8183 49.3156 77.4499 50.1304 78.9551C50.917 80.3609 51.8285 81.6125 53.2029 82.3109C54.5141 82.9731 55.9889 82.8073 57.2969 82.1376C58.2185 81.6433 59.1231 81.0683 59.6461 80.1903C60.1951 79.2309 60.1308 78.0882 59.6089 77.1124L58.1399 77.8639C58.5342 78.6787 58.6496 79.5238 58.252 80.3375C58.1027 80.6622 57.7806 80.9179 57.459 81.1283C57.1715 81.2745 56.8755 81.4036 56.5619 81.4509C55.2039 81.6699 54.2749 80.5176 53.5558 79.5525C52.6161 78.1573 51.8274 76.5724 51.2002 74.9934C50.8495 73.9968 50.5253 73.0109 50.6959 71.9735C50.7984 71.4234 51.1731 71.0508 51.6653 70.7766C51.9704 70.6208 52.2664 70.5826 52.555 70.5698C52.969 70.5842 53.3305 70.8063 53.6116 71.046C54.0841 71.4829 54.4492 72.0197 54.7516 72.6102L56.7947 71.5658C56.2717 70.4997 55.39 69.6163 54.183 69.4659C53.9847 69.4308 53.7875 69.442 53.6068 69.4441C53.2465 69.4473 52.9239 69.5217 52.5917 69.6248L52.0262 69.8013ZM39.1116 75.5052C38.5477 74.9811 37.8637 74.498 37.1796 74.2169C36.6566 73.9947 36.0523 73.975 35.4688 73.975C34.865 73.9947 34.3016 74.1164 33.7781 74.3572C32.5908 74.8201 31.7659 76.0287 31.6251 77.3154C31.464 78.6038 31.6649 79.9718 32.611 80.8179C33.6373 81.7831 35.1467 81.6827 36.3133 82.3274C37.0781 82.6898 37.6617 83.4339 37.6224 84.279C37.642 84.6218 37.5612 84.9433 37.4603 85.2452C37.2588 85.7278 36.797 86.0499 36.3537 86.2311C36.2532 86.2705 36.1326 86.2705 36.0518 86.3109C35.7101 86.3709 35.3072 86.3709 34.9655 86.2705C33.9392 86.009 33.1541 85.0433 32.6918 84.1371L31.2025 85.5864C31.9067 86.4719 32.9532 87.0565 34.0401 87.2367C34.5227 87.3372 35.1265 87.3977 35.7106 87.3781C37.2397 87.3574 38.7294 86.533 39.2918 85.1039C39.8158 83.9165 39.8557 82.246 39.212 81.0991C38.6077 80.0723 37.4608 79.5897 36.375 79.3085C35.2471 78.9657 33.6973 78.6638 33.4364 77.2958C33.396 76.8732 33.4162 76.4103 33.5772 76.0479C33.8791 75.3431 34.5833 75.1023 35.3077 75.0816C36.4355 75.0019 37.1796 76.0675 37.7026 76.8929L39.1116 75.5052ZM63.9714 69.028L64.7101 70.0325L62.0819 71.9634L64.8579 75.7422L68.1823 73.2995L68.9216 74.3056L63.5371 78.2615L55.8763 67.8321L61.3107 63.8407L62.0484 64.8457L58.6751 67.3246L61.3437 70.9578L63.9714 69.028Z" fill="#333333"/>
</svg>
